<?xml version="1.0" encoding="UTF-8"?>
<svg id="Layer_1" data-name="Layer 1" xmlns="http://www.w3.org/2000/svg" viewBox="0 0 447.85 85.99">
  <defs>
    <style>
      .cls-1 {
        fill: #b81c22;
      }
    </style>
  </defs>
  <path class="cls-1" d="M47.41,0c11.25,0,40.68,4.73,35.32,31.64-4.73,23.65-31.96,27.23-45.73,27.54-3.68,11.88-4.1,18.61-3.99,18.61,0,0,2.42,3.36-6.1,2.63-10.41-.95-9.46-14.09-2.42-32.48,3.57-9.25,8.83-19.97,14.82-31.12.74-1.37,2.42-2,4.42-2,4.84,0,11.46,3.57,9.78,6.62-5.15,9.67-9.78,19.66-13.77,29.96,31.54,2.63,38.79-43.2,8.51-43.2-25.33,0-29.43,18.82-29.01,25.33.11.95-3.78,2.21-7.88,2.21-2.31,0-4.62-.42-6.41-1.47-6.1-3.57-7.67-12.3,1.79-22.07C16.08,2.42,33.74,0,47.41,0Z"/>
  <path class="cls-1" d="M126.77,54.24c-3.05,12.72-11.67,22.71-23.55,22.71-9.04,0-25.96-4.42-18.4-30.59,3.15-10.72,11.98-22.07,25.54-22.07,18.29,0,19.24,18.4,16.4,29.96ZM111.74,32.9c-11.35.21-19.55,30.17-8.09,30.17,13.03,0,18.5-30.48,8.09-30.17Z"/>
  <path class="cls-1" d="M141.7,41c-3.89,8.62-7.25,11.46-9.88,11.46-5.05,0-7.25-10.09-4.2-9.78,7.78-2.1,10.93-8.73,14.09-16.4-2.84-.95-4.84-3.68-4.84-6.83,0-3.99,3.36-7.25,7.36-7.25s5.89,3.26,5.89,7.25c0,1.47-.21,2.73-.63,3.89,1.58,1.26,4.62,2.73,10.09,2,1.05-.53,2.31-.84,3.78-.84,4.94,0,10.93,2.94,9.67,5.99-3.68,8.3-12.61,29.22-5.15,29.22,6.94,0,11.88-8.83,14.19-14.19,3.47.21,2.52,4.2,2.52,4.2-2.73,12.19-10.83,29.54-27.54,27.75-19.55-2.31-5.99-35-.42-47.72-2.94.1-6.31-.21-9.36-1.79-1.58,3.78-4.52,10.83-5.57,13.03Z"/>
  <path class="cls-1" d="M216.12,49.72c-2.84,12.19-9.78,27.44-26.49,25.54-13.35-1.47-12.19-15.56-7.67-29.64,1.58-5.26,3.26-10.3,5.47-16.82h-6.1c-2.94,0-1.89-5.15,2.73-5.15h5.15c1.79-4.94,3.99-10.62,6.83-17.87.74-1.79,2.84-2.52,5.26-2.52,4.94,0,11.35,2.94,9.99,5.99-.84,2-3.15,7.25-5.78,14.51h3.26c4.84,0,3.05,5.05-.21,5.05h-4.83c-1.79,5.05-3.57,10.72-5.15,16.82-2,7.57-2.21,12.72,1.79,12.72,6.94,0,10.93-7.46,13.25-12.82,3.47.21,2.52,4.2,2.52,4.2Z"/>
  <path class="cls-1" d="M221.69,41c-3.89,8.62-7.25,11.46-9.88,11.46-5.05,0-7.25-10.09-4.21-9.78,7.78-2.1,10.93-8.73,14.09-16.4-2.84-.95-4.83-3.68-4.83-6.83,0-3.99,3.36-7.25,7.36-7.25s5.89,3.26,5.89,7.25c0,1.47-.21,2.73-.63,3.89,1.58,1.26,4.63,2.73,10.09,2,1.05-.53,2.31-.84,3.78-.84,4.94,0,10.93,2.94,9.67,5.99-3.68,8.3-12.61,29.22-5.15,29.22,6.94,0,11.88-8.83,14.19-14.19,3.47.21,2.52,4.2,2.52,4.2-2.73,12.19-10.83,29.54-27.54,27.75-19.55-2.31-5.99-35-.42-47.72-2.94.1-6.31-.21-9.36-1.79-1.58,3.78-4.52,10.83-5.57,13.03Z"/>
  <path class="cls-1" d="M290.34,64.44c-1.26,7.36-7.88,21.55-20.81,21.55-2.84,0-11.04-1.89-11.88-10.83-1.58-6.73.21-17.45,4.31-30.48h-1.79c-3.05,0-2-5.15,2.73-5.15h.74c2.63-7.57,5.89-15.87,9.46-24.28.84-1.79,2.94-2.52,5.36-2.52,4.94,0,11.14,2.94,9.88,5.99-3.26,7.67-5.89,14.61-8.09,20.92h7.36c4.73,0,2.94,5.05-.32,5.05h-4.73c9.57,2.21,8.62,14.61,7.78,19.76ZM277.51,50.35c-1.58,0-5.47,24.07-2.84,24.07,8.83,0,13.88-24.07,2.84-24.07Z"/>
  <path class="cls-1" d="M336.59,54.24c-3.05,12.72-11.67,22.71-23.55,22.71-9.04,0-25.96-4.42-18.4-30.59,3.15-10.72,11.98-22.07,25.54-22.07,18.29,0,19.24,18.4,16.4,29.96ZM321.55,32.9c-11.35.21-19.55,30.17-8.09,30.17,13.04,0,18.5-30.48,8.09-30.17Z"/>
  <path class="cls-1" d="M377.48,49.72c-2.73,12.4-9.78,27.86-26.8,26.07-13.56-1.58-12.4-15.87-7.88-30.17,3.26-10.2,6.2-19.34,14.4-40.37.74-1.79,2.84-2.63,5.36-2.63,5.05,0,11.46,3.15,10.09,6.2-1.58,3.57-8.09,18.5-12.93,36.79-2.1,7.67-2.21,12.82,1.89,12.82,7.04,0,11.04-7.46,13.35-12.93,3.47.1,2.52,4.2,2.52,4.2Z"/>
  <path class="cls-1" d="M409.01,49.72c-2.73,12.19-10.72,29.54-27.54,27.65-21.34-2.31-3.36-40.89.84-50.35.84-1.79,2.94-2.52,5.36-2.52,5.05,0,11.25,2.94,9.88,5.99-3.57,8.3-12.82,29.22-5.15,29.22,6.94,0,11.88-8.83,14.09-14.19,3.36.21,2.52,4.2,2.52,4.2ZM389.04,13.25c0-4.1,3.26-7.36,7.36-7.36s7.25,3.26,7.25,7.36-3.26,7.36-7.25,7.36-7.36-3.26-7.36-7.36Z"/>
  <path class="cls-1" d="M446.64,54.24c-3.05,12.72-11.67,22.71-23.55,22.71-9.04,0-25.96-4.42-18.4-30.59,3.15-10.72,11.98-22.07,25.54-22.07,18.29,0,19.24,18.4,16.4,29.96ZM431.61,32.9c-11.35.21-19.55,30.17-8.09,30.17,13.03,0,18.5-30.48,8.09-30.17Z"/>
</svg>