<svg width="414" height="50" viewBox="0 0 414 50" fill="none" xmlns="http://www.w3.org/2000/svg">
<g clip-path="url(#clip0_63_159)">
<path d="M33.6335 12.335C33.5321 11.472 33.4306 10.7106 33.2784 10.1015C33.1262 9.49235 32.974 8.93398 32.771 8.47713C32.5681 8.02027 32.3651 7.61418 32.1622 7.30961C31.9592 7.00504 31.7056 6.70048 31.4012 6.39591C30.6401 5.58372 29.7776 5.02535 28.7629 4.61926C27.7482 4.21317 26.5305 4.06088 24.907 4.06088H18.1591V40.5076C18.1591 42.0304 18.2606 43.1979 18.4128 44.1116C18.565 45.0254 18.8187 45.6852 19.1231 46.0406C19.9349 47.005 21.3047 47.4619 23.1819 47.4619H24.8562V48.7817H4.5619V47.4619H6.28692C7.30164 47.4619 8.16414 47.3096 8.87444 47.0558C9.53401 46.7512 10.1428 46.2944 10.5995 45.6345C10.8531 45.2792 11.0053 44.67 11.1576 43.8071C11.259 42.9949 11.3605 41.8781 11.3605 40.4568V4.06088H5.67809C4.71411 4.06088 3.90234 4.06088 3.24277 4.11164C2.58321 4.1624 2.02511 4.21317 1.51775 4.36545C1.06113 4.46697 0.604506 4.61926 0.249355 4.8223C-0.105796 5.02535 -0.460942 5.27916 -0.816093 5.58372C-2.54111 6.85276 -3.5051 9.08626 -3.80951 12.335H-5.38232L-4.87496 1.16748H34.7497L35.1556 12.335H33.6335Z" fill="#BAA99F"/>
<path d="M79.2958 12.335C79.1943 11.472 79.0928 10.7106 78.9406 10.1015C78.7884 9.49235 78.6362 8.93398 78.4333 8.47713C78.2303 8.02027 78.0274 7.61418 77.8244 7.30961C77.6215 7.00504 77.3678 6.70048 77.0634 6.39591C76.3024 5.58372 75.4398 5.02535 74.4251 4.61926C73.4104 4.21317 72.142 4.06088 70.5692 4.06088H63.8213V40.5076C63.8213 42.0304 63.9228 43.1979 64.075 44.1116C64.278 45.0254 64.4809 45.6852 64.7853 46.0406C65.5971 47.005 66.967 47.4619 68.8442 47.4619H70.5185V48.7817H50.2241V47.4619H51.9492C52.9639 47.4619 53.8264 47.3096 54.5367 47.0558C55.1963 46.7512 55.8051 46.2944 56.2617 45.6345C56.5154 45.2792 56.6676 44.67 56.8198 43.8071C56.972 42.9441 57.0227 41.8781 57.0227 40.4568V4.06088H51.3403C50.3763 4.06088 49.5646 4.06088 48.905 4.11164C48.2454 4.1624 47.6873 4.21317 47.18 4.36545C46.7234 4.46697 46.2667 4.61926 45.9116 4.8223C45.5564 5.02535 45.2013 5.27916 44.8461 5.58372C43.1211 6.85276 42.1571 9.08626 41.8527 12.335H40.2799L40.7873 1.16748H80.412L80.8178 12.335H79.2958Z" fill="#BAA99F"/>
<path d="M122.675 48.8324H85.8914V47.5126H87.5657C87.7686 47.5126 88.0223 47.5126 88.3775 47.4619C88.7326 47.4111 89.037 47.3604 89.3922 47.3096C89.7473 47.2081 90.1025 47.1065 90.4576 46.9543C90.8128 46.802 91.1172 46.6497 91.3202 46.4466C91.5738 46.2436 91.7768 45.9898 91.929 45.736C92.0812 45.4822 92.2334 45.1269 92.3856 44.67C92.4871 44.2131 92.5885 43.6548 92.6393 42.9949C92.69 42.335 92.7408 41.4213 92.7408 40.406V9.44157C92.7408 7.86797 92.6393 6.64969 92.4871 5.73599C92.3349 4.82228 92.0812 4.21315 91.8275 3.90858C90.965 2.94411 89.5444 2.48726 87.5657 2.48726H85.8914V1.1167H122.675L123.233 11.5228H121.812C121.66 10.8629 121.508 10.203 121.356 9.54309C121.254 8.8832 121.051 8.27406 120.848 7.71568C120.645 7.15731 120.341 6.59893 119.986 6.09132C119.631 5.63447 119.123 5.17761 118.515 4.82228C117.906 4.46695 117.094 4.21315 116.181 4.0101C115.217 3.80705 114.05 3.70553 112.629 3.70553H99.3872V22.538H109.889C111.513 22.538 112.781 22.4365 113.695 22.1319C114.608 21.8781 115.318 21.472 115.826 20.9137C116.333 20.3553 116.637 19.6446 116.84 18.7817C117.043 17.9187 117.246 16.9035 117.398 15.6852H118.718V32.2842H117.398C117.246 31.0152 117.043 29.9999 116.84 29.0862C116.637 28.1725 116.282 27.4619 115.775 26.9035C115.267 26.3451 114.557 25.8883 113.644 25.6345C112.731 25.3807 111.462 25.2284 109.839 25.2284H99.3364V43.0964C99.3364 43.7055 99.4379 44.2639 99.6916 44.7715C99.8945 45.2284 100.3 45.6345 100.858 45.8883C101.417 46.1421 102.279 46.2944 103.395 46.2944H111.462C112.731 46.2944 113.898 46.2436 114.862 46.1421C115.826 46.0406 116.739 45.8375 117.5 45.5837C118.261 45.3299 118.971 44.9746 119.631 44.5177C120.29 44.0609 120.848 43.5025 121.457 42.7918C122.066 42.0812 122.675 41.269 123.284 40.3045C123.893 39.34 124.552 38.1725 125.313 36.8527H126.784L122.675 48.8324Z" fill="#BAA99F"/>
<path d="M163.01 48.8324L146.876 26.4974C146.267 26.4974 145.709 26.5482 145.202 26.5989C144.745 26.6497 144.288 26.6497 143.933 26.6497C143.578 26.6497 143.223 26.6497 142.918 26.6497C142.563 26.6497 142.208 26.5989 141.802 26.5482V40.3553C141.802 43.401 142.157 45.2791 142.817 45.939C143.73 47.005 145.049 47.5126 146.876 47.5126H148.753V48.8324H128.307V47.5126H130.082C132.163 47.5126 133.583 46.9035 134.395 45.6345C134.852 44.873 135.105 43.1472 135.105 40.406V9.54309C135.105 6.59893 134.801 4.72076 134.192 3.90858C133.685 3.40096 133.126 3.04563 132.467 2.79183C131.807 2.53802 130.996 2.38573 130.133 2.38573H128.357V1.1167H145.658C148.195 1.1167 150.427 1.21822 152.305 1.37051C154.182 1.52279 155.755 1.82736 156.972 2.23345C158.19 2.63954 159.306 3.19792 160.372 3.85782C161.437 4.56848 162.35 5.38066 163.111 6.29436C163.872 7.25883 164.481 8.27406 164.938 9.49233C165.394 10.6598 165.597 11.9289 165.597 13.2994C165.597 14.7715 165.344 16.1421 164.887 17.4619C164.43 18.7817 163.669 19.9492 162.705 21.0152C161.741 22.0812 160.524 22.9949 159.052 23.7563C157.581 24.5177 155.856 25.1776 153.877 25.5837L163.619 39.2893C164.684 40.8121 165.699 42.0304 166.612 43.0456C167.525 44.0609 168.439 44.873 169.403 45.4822C170.367 46.0913 171.331 46.5482 172.345 46.8527C173.36 47.1573 174.578 47.3604 175.846 47.5126V48.8324H163.01ZM157.581 13.9593C157.581 12.4365 157.327 11.1167 156.871 9.84766C156.414 8.57863 155.704 7.5634 154.791 6.70046C153.877 5.83751 152.863 5.07609 151.594 4.56848C150.326 4.06086 148.905 3.80705 147.333 3.75629C146.724 3.75629 145.963 3.80705 145.049 3.90858C144.136 4.0101 143.071 4.16238 141.853 4.36543V24.2639H143.882C146.216 24.2639 148.246 24.0101 149.971 23.5025C151.696 22.9949 153.116 22.2842 154.283 21.3197C155.399 20.406 156.262 19.2893 156.82 18.0203C157.327 16.802 157.581 15.4314 157.581 13.9593Z" fill="#BAA99F"/>
<path d="M241.904 37.6649C240.737 39.7461 239.469 41.5735 238.099 43.0964C236.729 44.6192 235.258 45.939 233.634 46.9543C232.011 47.9695 230.235 48.7309 228.358 49.2385C226.48 49.7461 224.4 49.9999 222.117 49.9999C219.682 49.9999 217.399 49.6954 215.318 49.0862C213.238 48.4771 211.31 47.6649 209.585 46.5989C207.86 45.5329 206.338 44.2639 205.019 42.7411C203.7 41.2182 202.584 39.5938 201.671 37.8172C200.757 36.0406 200.047 34.1116 199.59 32.0304C199.134 29.9999 198.88 27.868 198.88 25.6852C198.88 22.2334 199.489 18.934 200.605 15.7867C201.772 12.6903 203.396 9.94918 205.526 7.61415C207.657 5.27913 210.194 3.40096 213.238 2.0304C216.232 0.659839 219.58 -0.0508209 223.233 -0.0508209C225.06 -0.0508209 226.633 0.101463 228.002 0.456793C229.372 0.812123 230.539 1.21821 231.554 1.57354C232.569 1.97964 233.38 2.38573 234.04 2.6903C234.7 3.04563 235.207 3.19791 235.562 3.19791C236.171 3.19791 236.78 2.89334 237.287 2.38573C237.794 1.82735 238.2 1.01517 238.454 -0.152344H239.722L240.839 16.0913H239.722C239.012 13.6548 238.099 11.5735 237.033 9.79689C235.968 8.07101 234.75 6.64969 233.431 5.53294C232.061 4.41618 230.59 3.604 228.966 3.09639C227.343 2.58877 225.618 2.33497 223.741 2.33497C221.305 2.33497 219.022 2.79182 216.942 3.70552C214.862 4.61923 213.086 6.04055 211.615 7.96948C210.143 9.89842 208.977 12.2842 208.114 15.2284C207.252 18.1218 206.846 21.5735 206.846 25.5837C206.846 28.9847 207.252 31.9796 208.114 34.6192C208.977 37.2588 210.194 39.4416 211.767 41.2182C213.34 42.9949 215.217 44.3654 217.399 45.2791C219.58 46.1928 222.016 46.6497 224.755 46.6497C226.328 46.6497 227.8 46.4974 229.119 46.1928C230.438 45.8883 231.757 45.3807 233.025 44.6192C234.294 43.8578 235.562 42.8933 236.83 41.5735C238.099 40.3045 239.418 38.6801 240.839 36.6497L241.904 37.6649Z" fill="#BAA99F"/>
<path d="M283.761 48.8324H246.978V47.5126H248.652C248.855 47.5126 249.109 47.5126 249.464 47.4619C249.819 47.4111 250.123 47.3604 250.478 47.3096C250.834 47.2081 251.189 47.1065 251.544 46.9543C251.899 46.802 252.203 46.6497 252.406 46.4466C252.66 46.2436 252.863 45.9898 253.015 45.736C253.167 45.4822 253.32 45.1269 253.472 44.67C253.573 44.2131 253.675 43.6548 253.726 42.9949C253.776 42.335 253.827 41.4213 253.827 40.406V9.44157C253.827 7.86797 253.726 6.64969 253.573 5.73599C253.421 4.82228 253.167 4.21315 252.914 3.90858C252.051 2.94411 250.631 2.48726 248.652 2.48726H246.978V1.1167H283.761L284.319 11.5228H282.899C282.746 10.8629 282.594 10.203 282.442 9.54309C282.341 8.8832 282.138 8.27406 281.935 7.71568C281.732 7.15731 281.427 6.59893 281.072 6.09132C280.717 5.63447 280.21 5.17761 279.601 4.82228C278.992 4.46695 278.18 4.21315 277.216 4.0101C276.252 3.80705 275.085 3.70553 273.665 3.70553H260.423V22.538H270.925C272.549 22.538 273.817 22.4365 274.73 22.1319C275.643 21.8781 276.354 21.472 276.861 20.9137C277.368 20.3553 277.724 19.6446 277.876 18.7817C278.079 17.9187 278.282 16.9035 278.434 15.6852H279.753V32.2842H278.434C278.282 31.0152 278.079 29.9999 277.876 29.0862C277.673 28.1725 277.318 27.4619 276.81 26.9035C276.303 26.3451 275.593 25.8883 274.679 25.6345C273.766 25.3807 272.498 25.2284 270.874 25.2284H260.372V43.0964C260.372 43.7055 260.473 44.2639 260.727 44.7715C260.93 45.2284 261.336 45.6345 261.894 45.8883C262.452 46.1421 263.315 46.2944 264.431 46.2944H272.599C273.868 46.2944 275.035 46.2436 275.999 46.1421C276.963 46.0406 277.876 45.8375 278.637 45.5837C279.398 45.3299 280.108 44.9746 280.768 44.5177C281.427 44.0609 281.985 43.5025 282.594 42.7918C283.203 42.0812 283.812 41.269 284.421 40.3045C285.03 39.34 285.689 38.1725 286.45 36.8527H287.871L283.761 48.8324Z" fill="#BAA99F"/>
<path d="M326.633 48.8324H289.545V47.5126C290.56 47.5126 291.524 47.4619 292.386 47.3604C293.249 47.2588 294.01 47.005 294.619 46.5989C295.227 46.1928 295.684 45.6345 296.039 44.8223C296.394 44.0101 296.547 42.9441 296.547 41.6243V8.42634C296.547 7.05579 296.394 5.9898 296.039 5.17761C295.684 4.36543 295.227 3.80705 294.619 3.40096C294.01 2.99487 293.249 2.74106 292.386 2.63954C291.524 2.53802 290.56 2.48726 289.545 2.48726V1.1167H310.245V2.4365C309.18 2.4365 308.216 2.48726 307.353 2.58878C306.491 2.6903 305.78 2.94411 305.121 3.3502C304.512 3.75629 304.005 4.36543 303.7 5.12685C303.345 5.93903 303.193 7.00502 303.193 8.37558V39.8477C303.193 41.2182 303.294 42.2842 303.548 43.0456C303.802 43.8578 304.157 44.4162 304.664 44.8223C305.172 45.2284 305.781 45.4822 306.542 45.5837C307.303 45.6852 308.216 45.736 309.231 45.736H314.05C315.522 45.736 316.739 45.736 317.805 45.6852C318.87 45.6345 319.733 45.5329 320.545 45.3807C321.306 45.2284 322.016 45.0253 322.574 44.7715C323.183 44.5177 323.69 44.1624 324.198 43.7055C324.806 43.1979 325.314 42.6903 325.821 42.1827C326.278 41.6751 326.734 41.1167 327.14 40.5076C327.546 39.8984 327.952 39.1878 328.358 38.4263C328.764 37.6649 329.17 36.7512 329.626 35.6852L330.844 35.8375L326.633 48.8324Z" fill="#BAA99F"/>
<path d="M373.056 48.8324H335.968V47.5126C336.983 47.5126 337.947 47.4619 338.81 47.3604C339.672 47.2588 340.433 47.005 341.042 46.5989C341.651 46.1928 342.107 45.6345 342.463 44.8223C342.818 44.0101 342.97 42.9441 342.97 41.6243V8.42634C342.97 7.05579 342.818 5.9898 342.463 5.17761C342.107 4.36543 341.651 3.80705 341.042 3.40096C340.433 2.99487 339.672 2.74106 338.81 2.63954C337.947 2.53802 336.983 2.48726 335.968 2.48726V1.1167H356.669V2.4365C355.603 2.4365 354.639 2.48726 353.777 2.58878C352.914 2.6903 352.204 2.94411 351.544 3.3502C350.935 3.75629 350.428 4.36543 350.124 5.12685C349.768 5.93903 349.616 7.00502 349.616 8.37558V39.8477C349.616 41.2182 349.718 42.2842 349.971 43.0456C350.225 43.8578 350.58 44.4162 351.088 44.8223C351.595 45.2284 352.204 45.4822 352.965 45.5837C353.726 45.6852 354.639 45.736 355.654 45.736H360.474C361.945 45.736 363.163 45.736 364.228 45.6852C365.294 45.6345 366.156 45.5329 366.968 45.3807C367.729 45.2284 368.439 45.0253 368.997 44.7715C369.606 44.5177 370.114 44.1624 370.621 43.7055C371.23 43.1979 371.737 42.6903 372.244 42.1827C372.701 41.6751 373.158 41.1167 373.564 40.5076C373.969 39.8984 374.375 39.1878 374.781 38.4263C375.187 37.6649 375.593 36.7512 376.05 35.6852L377.267 35.8375L373.056 48.8324Z" fill="#BAA99F"/>
<path d="M414 36.7005C414 38.5279 413.645 40.2031 412.884 41.8274C412.123 43.4518 411.108 44.8731 409.789 46.0406C408.47 47.2589 406.846 48.2234 405.02 48.934C403.193 49.6447 401.164 50 398.931 50C397.308 50 395.837 49.8477 394.517 49.5939C393.198 49.3401 391.981 48.9848 390.915 48.6295C389.85 48.2741 388.937 47.9696 388.125 47.665C387.313 47.3604 386.653 47.2589 386.095 47.2589C385.537 47.2589 385.081 47.4619 384.725 47.868C384.37 48.2741 384.117 48.9848 383.964 50H382.696V33.6041H383.964C384.269 36.0914 384.878 38.1726 385.74 39.8985C386.603 41.6244 387.719 43.0457 388.987 44.1117C390.256 45.2284 391.676 45.9899 393.3 46.4975C394.923 47.0051 396.496 47.2589 398.221 47.2589C399.692 47.2589 401.012 47.0559 402.179 46.6498C403.345 46.2437 404.36 45.6853 405.172 44.9239C405.984 44.1625 406.643 43.401 407.1 42.4366C407.557 41.4721 407.76 40.5076 407.76 39.4416C407.76 38.2741 407.557 37.2589 407.151 36.3452C406.745 35.4315 406.085 34.5685 405.172 33.7564C404.259 32.9442 403.041 32.0812 401.62 31.1675C400.149 30.2538 398.373 29.2386 396.293 28.0711C393.452 26.4467 391.118 25.0254 389.342 23.8071C387.516 22.5381 386.095 21.3706 385.081 20.2031C384.066 19.0356 383.356 17.868 382.95 16.7005C382.544 15.533 382.392 14.1625 382.392 12.6904C382.392 11.0152 382.696 9.39088 383.356 7.86804C384.015 6.3452 384.928 5.0254 386.146 3.85789C387.364 2.69038 388.835 1.77667 390.509 1.11677C392.184 0.456873 394.162 0.101543 396.293 0.101543C397.663 0.101543 398.931 0.253827 400.098 0.507634C401.265 0.761441 402.229 1.11677 403.143 1.42134C404.056 1.77667 404.817 2.08124 405.527 2.33505C406.237 2.58885 406.796 2.74114 407.354 2.74114C407.912 2.74114 408.368 2.53809 408.723 2.132C409.079 1.72591 409.383 1.06601 409.637 0.0507812H410.956V16.599H409.637C409.383 14.3655 408.876 12.335 408.115 10.6599C407.354 8.98479 406.339 7.51271 405.172 6.3452C404.005 5.17768 402.635 4.31474 401.164 3.7056C399.642 3.09647 398.069 2.84266 396.395 2.84266C395.228 2.84266 394.162 3.04571 393.148 3.4518C392.133 3.85789 391.22 4.3655 390.509 5.07616C389.799 5.78682 389.139 6.54824 388.734 7.41119C388.277 8.32489 388.074 9.2386 388.074 10.2538C388.074 11.2691 388.226 12.0305 388.581 12.8427C388.936 13.6041 389.545 14.4163 390.459 15.2792C391.372 16.0914 392.589 17.0051 394.112 17.9696C395.634 18.934 397.562 20.0508 399.946 21.3198C402.229 22.5381 404.107 23.6041 405.578 24.5178C407.049 25.4315 408.216 26.2437 409.079 26.8528C410.702 28.0711 411.971 29.4924 412.884 31.2183C413.594 32.8427 414 34.6701 414 36.7005Z" fill="#BAA99F"/>
</g>
<defs>
<clipPath id="clip0_63_159">
<rect width="493" height="50" fill="white" transform="translate(-79)"/>
</clipPath>
</defs>
</svg>
