<svg width="544" height="67" viewBox="0 0 544 67" fill="none" xmlns="http://www.w3.org/2000/svg">
<g clip-path="url(#clip0_63_159)">
<path d="M34.0156 16.5289C33.8796 15.3726 33.7435 14.3523 33.5395 13.536C33.3354 12.7198 33.1313 11.9716 32.8592 11.3594C32.5871 10.7472 32.315 10.203 32.0429 9.79491C31.7708 9.38679 31.4307 8.97867 31.0225 8.57054C30.0022 7.48222 28.8457 6.734 27.4852 6.18983C26.1247 5.64567 24.4921 5.44161 22.3153 5.44161H13.268V54.2802C13.268 56.3208 13.404 57.8853 13.6081 59.1096C13.8122 60.334 14.1523 61.2183 14.5605 61.6944C15.6489 62.9868 17.4855 63.599 20.0025 63.599H22.2473V65.3675H-4.96274V63.599H-2.64988C-1.28938 63.599 -0.132957 63.3949 0.819394 63.0548C1.70372 62.6467 2.52003 62.0345 3.13225 61.1502C3.47238 60.6741 3.67645 59.8579 3.88052 58.7015C4.01657 57.6132 4.15263 56.1167 4.15263 54.2122V5.44161H-3.46619C-4.75867 5.44161 -5.84706 5.44161 -6.73139 5.50963C-7.61571 5.57765 -8.364 5.64567 -9.04425 5.84973C-9.65647 5.98577 -10.2687 6.18983 -10.7449 6.46192C-11.221 6.734 -11.6972 7.0741 -12.1734 7.48222C-14.4862 9.18273 -15.7787 12.1756 -16.1869 16.5289H-18.2957L-17.6154 1.56445H35.5122L36.0564 16.5289H34.0156Z" fill="#BAA99F"/>
<path d="M95.2383 16.5289C95.1023 15.3726 94.9662 14.3523 94.7621 13.536C94.558 12.7198 94.354 11.9716 94.0819 11.3594C93.8098 10.7472 93.5377 10.203 93.2656 9.79491C92.9935 9.38679 92.6534 8.97867 92.2452 8.57054C91.2248 7.48222 90.0684 6.734 88.7079 6.18983C87.3474 5.64567 85.6468 5.44161 83.538 5.44161H74.4906V54.2802C74.4906 56.3208 74.6267 57.8853 74.8308 59.1096C75.1029 60.334 75.375 61.2183 75.7831 61.6944C76.8715 62.9868 78.7082 63.599 81.2251 63.599H83.47V65.3675H56.2599V63.599H58.5728C59.9333 63.599 61.0897 63.3949 62.0421 63.0548C62.9264 62.6467 63.7427 62.0345 64.3549 61.1502C64.695 60.6741 64.8991 59.8579 65.1032 58.7015C65.3073 57.5452 65.3753 56.1167 65.3753 54.2122V5.44161H57.7565C56.464 5.44161 55.3756 5.44161 54.4913 5.50963C53.6069 5.57765 52.8587 5.64567 52.1784 5.84973C51.5662 5.98577 50.954 6.18983 50.4778 6.46192C50.0016 6.734 49.5254 7.0741 49.0493 7.48222C46.7364 9.18273 45.4439 12.1756 45.0358 16.5289H42.927L43.6073 1.56445H96.7349L97.2791 16.5289H95.2383Z" fill="#BAA99F"/>
<path d="M153.4 65.4357H104.082V63.6671H106.326C106.598 63.6671 106.939 63.6671 107.415 63.5991C107.891 63.5311 108.299 63.4631 108.775 63.3951C109.251 63.259 109.728 63.123 110.204 62.9189C110.68 62.7149 111.088 62.5108 111.36 62.2387C111.7 61.9666 111.972 61.6265 112.177 61.2864C112.381 60.9463 112.585 60.4702 112.789 59.858C112.925 59.2458 113.061 58.4976 113.129 57.6133C113.197 56.7291 113.265 55.5047 113.265 54.1443V12.6519C113.265 10.5433 113.129 8.9108 112.925 7.68643C112.721 6.46206 112.381 5.64582 112.04 5.2377C110.884 3.94531 108.979 3.33313 106.326 3.33313H104.082V1.49658H153.4L154.148 15.4407H152.243C152.039 14.5565 151.835 13.6722 151.631 12.788C151.495 11.9037 151.223 11.0874 150.951 10.3392C150.679 9.591 150.271 8.84278 149.794 8.16257C149.318 7.55039 148.638 6.93821 147.822 6.46206C147.005 5.98592 145.917 5.64582 144.693 5.37374C143.4 5.10166 141.835 4.96562 139.931 4.96562H122.176V30.2012H136.257C138.434 30.2012 140.135 30.0651 141.359 29.657C142.584 29.3169 143.536 28.7727 144.216 28.0245C144.897 27.2763 145.305 26.324 145.577 25.1676C145.849 24.0113 146.121 22.6509 146.325 21.0184H148.094V43.261H146.325C146.121 41.5605 145.849 40.2001 145.577 38.9758C145.305 37.7514 144.829 36.7991 144.148 36.0509C143.468 35.3027 142.516 34.6905 141.291 34.3504C140.067 34.0103 138.366 33.8062 136.189 33.8062H122.108V57.7494C122.108 58.5656 122.244 59.3138 122.584 59.994C122.856 60.6062 123.401 61.1504 124.149 61.4905C124.897 61.8306 126.054 62.0347 127.55 62.0347H138.366C140.067 62.0347 141.631 61.9666 142.924 61.8306C144.216 61.6946 145.441 61.4225 146.461 61.0824C147.482 60.7423 148.434 60.2661 149.318 59.6539C150.203 59.0418 150.951 58.2935 151.767 57.3413C152.583 56.389 153.4 55.3006 154.216 54.0083C155.032 52.7159 155.917 51.1514 156.937 49.3829H158.91L153.4 65.4357Z" fill="#BAA99F"/>
<path d="M207.48 65.4357L185.848 35.5067C185.032 35.5067 184.283 35.5748 183.603 35.6428C182.991 35.7108 182.379 35.7108 181.902 35.7108C181.426 35.7108 180.95 35.7108 180.542 35.7108C180.066 35.7108 179.59 35.6428 179.045 35.5748V54.0763C179.045 58.1575 179.522 60.6743 180.406 61.5585C181.63 62.9869 183.399 63.6671 185.848 63.6671H188.365V65.4357H160.951V63.6671H163.332C166.121 63.6671 168.025 62.8509 169.114 61.1504C169.726 60.1301 170.066 57.8174 170.066 54.1443V12.788C170.066 8.84277 169.658 6.32602 168.842 5.2377C168.161 4.5575 167.413 4.08135 166.529 3.74125C165.644 3.40115 164.556 3.19709 163.4 3.19709H161.019V1.49658H184.215C187.617 1.49658 190.61 1.63262 193.127 1.83668C195.643 2.04074 197.752 2.44887 199.385 2.99303C201.017 3.53719 202.514 4.28541 203.943 5.16968C205.371 6.12196 206.596 7.21029 207.616 8.43465C208.636 9.72704 209.453 11.0874 210.065 12.7199C210.677 14.2844 210.949 15.9849 210.949 17.8215C210.949 19.794 210.609 21.6306 209.997 23.3991C209.385 25.1676 208.364 26.7321 207.072 28.1605C205.779 29.589 204.147 30.8133 202.174 31.8336C200.201 32.8539 197.888 33.7382 195.235 34.2824L208.296 52.6479C209.725 54.6885 211.085 56.321 212.31 57.6814C213.534 59.0418 214.759 60.1301 216.051 60.9463C217.343 61.7626 218.636 62.3748 219.996 62.7829C221.357 63.191 222.99 63.4631 224.69 63.6671V65.4357H207.48ZM200.201 18.7057C200.201 16.6651 199.861 14.8966 199.249 13.1961C198.637 11.4956 197.684 10.1352 196.46 8.97882C195.235 7.82247 193.875 6.80217 192.174 6.12196C190.474 5.44176 188.569 5.10166 186.46 5.03364C185.644 5.03364 184.623 5.10166 183.399 5.2377C182.175 5.37374 180.746 5.5778 179.113 5.84988V32.5138H181.834C184.964 32.5138 187.685 32.1737 189.997 31.4935C192.31 30.8133 194.215 29.861 195.78 28.5687C197.276 27.3443 198.433 25.8479 199.181 24.1473C199.861 22.5149 200.201 20.6783 200.201 18.7057Z" fill="#BAA99F"/>
<path d="M313.259 50.471C311.694 53.2599 309.994 55.7086 308.157 57.7492C306.32 59.7898 304.347 61.5583 302.171 62.9187C299.994 64.2791 297.613 65.2995 295.096 65.9797C292.579 66.6599 289.79 67 286.729 67C283.464 67 280.403 66.5918 277.614 65.7756C274.825 64.9593 272.24 63.871 269.927 62.4426C267.614 61.0142 265.573 59.3137 263.805 57.2731C262.036 55.2324 260.539 53.0558 259.315 50.6751C258.09 48.2944 257.138 45.7096 256.526 42.9208C255.914 40.2 255.573 37.3431 255.573 34.4182C255.573 29.7928 256.39 25.3715 257.886 21.1543C259.451 17.005 261.628 13.3319 264.485 10.203C267.342 7.07407 270.743 4.55732 274.825 2.72077C278.838 0.884223 283.328 -0.0680609 288.226 -0.0680609C290.674 -0.0680609 292.783 0.136 294.62 0.612142C296.457 1.08828 298.021 1.63245 299.382 2.10859C300.742 2.65275 301.831 3.19691 302.715 3.60504C303.599 4.08118 304.279 4.28524 304.756 4.28524C305.572 4.28524 306.388 3.87712 307.069 3.19691C307.749 2.44869 308.293 1.36037 308.633 -0.204102H310.334L311.83 21.5624H310.334C309.381 18.2974 308.157 15.5086 306.728 13.1279C305.3 10.8152 303.667 8.91062 301.899 7.41417C300.062 5.91773 298.089 4.8294 295.912 4.1492C293.736 3.46899 291.423 3.12889 288.906 3.12889C285.641 3.12889 282.579 3.74108 279.79 4.96544C277.001 6.18981 274.621 8.09438 272.648 10.6791C270.675 13.2639 269.11 16.4609 267.954 20.406C266.798 24.2832 266.253 28.9086 266.253 34.2822C266.253 38.8396 266.798 42.8527 267.954 46.3898C269.11 49.9269 270.743 52.8517 272.852 55.2324C274.961 57.6132 277.478 59.4497 280.403 60.6741C283.328 61.8984 286.593 62.5106 290.266 62.5106C292.375 62.5106 294.348 62.3066 296.116 61.8984C297.885 61.4903 299.654 60.8101 301.354 59.7898C303.055 58.7695 304.756 57.4771 306.456 55.7086C308.157 54.0081 309.926 51.8314 311.83 49.1106L313.259 50.471Z" fill="#BAA99F"/>
<path d="M369.379 65.4357H320.061V63.6671H322.306C322.578 63.6671 322.918 63.6671 323.395 63.5991C323.871 63.5311 324.279 63.4631 324.755 63.3951C325.231 63.259 325.707 63.123 326.184 62.9189C326.66 62.7149 327.068 62.5108 327.34 62.2387C327.68 61.9666 327.952 61.6265 328.156 61.2864C328.36 60.9463 328.564 60.4702 328.768 59.858C328.905 59.2458 329.041 58.4976 329.109 57.6133C329.177 56.7291 329.245 55.5047 329.245 54.1443V12.6519C329.245 10.5433 329.109 8.9108 328.905 7.68643C328.7 6.46206 328.36 5.64582 328.02 5.2377C326.864 3.94531 324.959 3.33313 322.306 3.33313H320.061V1.49658H369.379L370.128 15.4407H368.223C368.019 14.5565 367.815 13.6722 367.611 12.788C367.475 11.9037 367.203 11.0874 366.931 10.3392C366.658 9.591 366.25 8.84278 365.774 8.16257C365.298 7.55039 364.618 6.93821 363.801 6.46206C362.985 5.98592 361.897 5.64582 360.604 5.37374C359.312 5.10166 357.747 4.96562 355.842 4.96562H338.088V30.2012H352.169C354.346 30.2012 356.047 30.0651 357.271 29.657C358.495 29.3169 359.448 28.7727 360.128 28.0245C360.808 27.2763 361.285 26.324 361.489 25.1676C361.761 24.0113 362.033 22.6509 362.237 21.0184H364.005V43.261H362.237C362.033 41.5605 361.761 40.2001 361.489 38.9758C361.216 37.7514 360.74 36.7991 360.06 36.0509C359.38 35.3027 358.427 34.6905 357.203 34.3504C355.979 34.0103 354.278 33.8062 352.101 33.8062H338.02V57.7494C338.02 58.5656 338.156 59.3138 338.496 59.994C338.768 60.6062 339.312 61.1504 340.061 61.4905C340.809 61.8306 341.965 62.0347 343.462 62.0347H354.414C356.115 62.0347 357.679 61.9666 358.972 61.8306C360.264 61.6946 361.489 61.4225 362.509 61.0824C363.529 60.7423 364.482 60.2661 365.366 59.6539C366.25 59.0418 366.999 58.2935 367.815 57.3413C368.631 56.389 369.448 55.3006 370.264 54.0083C371.08 52.7159 371.964 51.1514 372.985 49.3829H374.89L369.379 65.4357Z" fill="#BAA99F"/>
<path d="M426.861 65.4357H377.135V63.6671C378.495 63.6671 379.787 63.5991 380.944 63.4631C382.1 63.327 383.121 62.9869 383.937 62.4428C384.753 61.8986 385.366 61.1504 385.842 60.0621C386.318 58.9737 386.522 57.5453 386.522 55.7768V11.2915C386.522 9.45496 386.318 8.02653 385.842 6.93821C385.366 5.84988 384.753 5.10166 383.937 4.5575C383.121 4.01333 382.1 3.67323 380.944 3.53719C379.787 3.40115 378.495 3.33313 377.135 3.33313V1.49658H404.889V3.26511C403.46 3.26511 402.168 3.33313 401.011 3.46917C399.855 3.60521 398.903 3.94531 398.018 4.48948C397.202 5.03364 396.522 5.84988 396.114 6.87019C395.637 7.95851 395.433 9.38694 395.433 11.2235V53.3961C395.433 55.2326 395.569 56.6611 395.909 57.6814C396.25 58.7697 396.726 59.5179 397.406 60.0621C398.086 60.6062 398.903 60.9463 399.923 61.0824C400.943 61.2184 402.168 61.2864 403.528 61.2864H409.991C411.963 61.2864 413.596 61.2864 415.024 61.2184C416.453 61.1504 417.609 61.0144 418.698 60.8103C419.718 60.6062 420.671 60.3341 421.419 59.994C422.235 59.6539 422.915 59.1778 423.596 58.5656C424.412 57.8854 425.092 57.2052 425.772 56.525C426.385 55.8448 426.997 55.0966 427.541 54.2803C428.085 53.4641 428.63 52.5118 429.174 51.4915C429.718 50.4712 430.262 49.2468 430.874 47.8184L432.507 48.0225L426.861 65.4357Z" fill="#BAA99F"/>
<path d="M489.104 65.4357H439.377V63.6671C440.738 63.6671 442.03 63.5991 443.187 63.4631C444.343 63.327 445.364 62.9869 446.18 62.4428C446.996 61.8986 447.608 61.1504 448.085 60.0621C448.561 58.9737 448.765 57.5453 448.765 55.7768V11.2915C448.765 9.45496 448.561 8.02653 448.085 6.93821C447.608 5.84988 446.996 5.10166 446.18 4.5575C445.364 4.01333 444.343 3.67323 443.187 3.53719C442.03 3.40115 440.738 3.33313 439.377 3.33313V1.49658H467.132V3.26511C465.703 3.26511 464.411 3.33313 463.254 3.46917C462.098 3.60521 461.145 3.94531 460.261 4.48948C459.445 5.03364 458.765 5.84988 458.356 6.87019C457.88 7.95851 457.676 9.38694 457.676 11.2235V53.3961C457.676 55.2326 457.812 56.6611 458.152 57.6814C458.492 58.7697 458.969 59.5179 459.649 60.0621C460.329 60.6062 461.145 60.9463 462.166 61.0824C463.186 61.2184 464.411 61.2864 465.771 61.2864H472.234C474.206 61.2864 475.839 61.2864 477.267 61.2184C478.696 61.1504 479.852 61.0144 480.941 60.8103C481.961 60.6062 482.913 60.3341 483.662 59.994C484.478 59.6539 485.158 59.1778 485.839 58.5656C486.655 57.8854 487.335 57.2052 488.015 56.525C488.628 55.8448 489.24 55.0966 489.784 54.2803C490.328 53.4641 490.872 52.5118 491.417 51.4915C491.961 50.4712 492.505 49.2468 493.117 47.8184L494.75 48.0225L489.104 65.4357Z" fill="#BAA99F"/>
<path d="M544 49.1785C544 51.6273 543.524 53.8719 542.503 56.0486C541.483 58.2252 540.123 60.1298 538.354 61.6943C536.585 63.3268 534.408 64.6191 531.96 65.5714C529.511 66.5237 526.79 66.9999 523.797 66.9999C521.62 66.9999 519.647 66.7958 517.878 66.4557C516.11 66.1156 514.477 65.6395 513.049 65.1633C511.62 64.6872 510.396 64.279 509.307 63.8709C508.219 63.4628 507.334 63.3268 506.586 63.3268C505.838 63.3268 505.226 63.5988 504.749 64.143C504.273 64.6872 503.933 65.6394 503.729 66.9999H502.028V45.0293H503.729C504.137 48.3623 504.954 51.1511 506.11 53.4638C507.266 55.7765 508.763 57.6811 510.464 59.1095C512.164 60.6059 514.069 61.6262 516.246 62.3065C518.423 62.9867 520.531 63.3268 522.844 63.3268C524.817 63.3268 526.586 63.0547 528.15 62.5105C529.715 61.9664 531.075 61.2181 532.164 60.1978C533.252 59.1775 534.136 58.1572 534.749 56.8648C535.361 55.5724 535.633 54.2801 535.633 52.8516C535.633 51.2872 535.361 49.9268 534.817 48.7024C534.272 47.478 533.388 46.3217 532.164 45.2334C530.939 44.145 529.307 42.9887 527.402 41.7643C525.429 40.54 523.048 39.1795 520.259 37.6151C516.45 35.4384 513.321 33.5339 510.94 31.9014C508.491 30.2009 506.586 28.6364 505.226 27.0719C503.865 25.5075 502.913 23.943 502.369 22.3785C501.824 20.8141 501.62 18.9775 501.62 17.0049C501.62 14.7603 502.028 12.5836 502.913 10.543C503.797 8.50239 505.022 6.73386 506.654 5.16939C508.287 3.60493 510.26 2.38056 512.504 1.4963C514.749 0.612034 517.402 0.135891 520.259 0.135891C522.096 0.135891 523.797 0.339952 525.361 0.680054C526.926 1.02016 528.218 1.4963 529.443 1.90442C530.667 2.38056 531.687 2.78868 532.64 3.12878C533.592 3.46889 534.34 3.67295 535.089 3.67295C535.837 3.67295 536.449 3.40087 536.925 2.8567C537.402 2.31254 537.81 1.42828 538.15 0.0678711H539.918V22.2425H538.15C537.81 19.2496 537.129 16.5288 536.109 14.2841C535.089 12.0394 533.728 10.0669 532.164 8.50239C530.599 6.93792 528.762 5.78158 526.79 4.96533C524.749 4.14909 522.64 3.80899 520.395 3.80899C518.831 3.80899 517.402 4.08107 516.042 4.62523C514.681 5.16939 513.457 5.8496 512.504 6.80188C511.552 7.75417 510.668 8.77447 510.124 9.93082C509.511 11.1552 509.239 12.3795 509.239 13.74C509.239 15.1004 509.443 16.1207 509.919 17.209C510.396 18.2293 511.212 19.3176 512.436 20.474C513.661 21.5623 515.293 22.7867 517.334 24.079C519.375 25.3714 521.96 26.8679 525.157 28.5684C528.218 30.2009 530.735 31.6293 532.708 32.8537C534.681 34.078 536.245 35.1664 537.402 35.9826C539.578 37.6151 541.279 39.5197 542.503 41.8323C543.456 44.009 544 46.4577 544 49.1785Z" fill="#BAA99F"/>
</g>
<defs>
<clipPath id="clip0_63_159">
<rect width="661" height="67" fill="white" transform="translate(-117)"/>
</clipPath>
</defs>
</svg>
