<svg width="296" height="30" viewBox="0 0 296 30" fill="none" xmlns="http://www.w3.org/2000/svg">
<g clip-path="url(#clip0_29_4)">
<path d="M25.7405 21.4721C25.7405 21.9898 25.6795 22.5076 25.5577 23.0254C25.4358 23.5431 25.2531 24.0609 25.0094 24.5787C24.7657 25.0964 24.461 25.5533 24.0955 26.0406C23.73 26.4975 23.3035 26.8934 22.8466 27.2893C22.3896 27.6548 21.8718 27.9594 21.3235 28.203C20.7447 28.4772 20.0745 28.6904 19.3434 28.8426C18.5819 29.0254 17.7289 29.1472 16.7846 29.2081C15.8098 29.2995 14.7436 29.33 13.4947 29.33H0V28.5381H1.03571C2.22373 28.5381 3.07667 28.1726 3.62499 27.4112C3.7773 27.1675 3.86868 26.802 3.96007 26.2843C4.05146 25.7665 4.08192 25.0964 4.08192 24.2741V5.72589C4.08192 3.95939 3.89915 2.83249 3.50314 2.34518C3.22898 2.04061 2.8939 1.82741 2.49789 1.67513C2.07142 1.52284 1.61449 1.43147 1.03571 1.43147H0V0.670052H12.3676C14.043 0.670052 15.5357 0.791879 16.7846 1.00508C18.0335 1.21827 19.0997 1.52284 19.9831 1.91878C20.8665 2.28426 21.5976 2.74112 22.1764 3.25888C22.7552 3.77665 23.2121 4.29442 23.5472 4.8731C23.8823 5.45178 24.0955 6.03046 24.2174 6.60914C24.3392 7.18782 24.4001 7.79696 24.4001 8.37564C24.4001 9.07614 24.2783 9.74619 24.065 10.3858C23.8518 11.0254 23.5167 11.6345 23.0903 12.1827C22.6638 12.731 22.1155 13.2183 21.4758 13.6447C20.8361 14.0711 20.0745 14.4365 19.1911 14.6802C20.3182 14.8934 21.293 15.2284 22.1155 15.6548C22.9379 16.0812 23.6081 16.599 24.1564 17.2081C24.7047 17.7868 25.1007 18.4569 25.3444 19.1878C25.5881 19.8883 25.7405 20.6497 25.7405 21.4721ZM19.9831 8.13198C19.9831 7.30965 19.8308 6.54822 19.4957 5.81726C19.1606 5.0863 18.6733 4.4467 18.0031 3.89848C17.3329 3.35025 16.5104 2.92386 15.5052 2.58883C14.4999 2.25381 13.3424 2.10152 11.9716 2.10152C11.2405 2.10152 10.5703 2.13198 9.93064 2.19289C9.29093 2.25381 8.71215 2.37564 8.13338 2.52792V13.5533C8.68169 13.6751 9.29093 13.7665 9.93064 13.797C10.5703 13.8274 11.3319 13.8579 12.1544 13.8579C13.5556 13.8579 14.7436 13.736 15.7184 13.4619C16.6932 13.2183 17.5157 12.8223 18.1249 12.335C18.7646 11.8477 19.2216 11.269 19.4957 10.5381C19.8308 9.83756 19.9831 9.01523 19.9831 8.13198ZM20.8361 21.8071C20.8361 20.8325 20.6533 19.9797 20.2573 19.1878C19.8613 18.3959 19.313 17.6954 18.5514 17.1168C17.7899 16.5381 16.876 16.0812 15.7489 15.7767C14.6218 15.4416 13.3424 15.2893 11.9107 15.2893C10.9968 15.2893 10.2657 15.2893 9.65648 15.3198C9.04724 15.3503 8.55984 15.4112 8.16384 15.4721V27.2284C8.98631 27.4112 9.80879 27.5635 10.6008 27.6548C11.3928 27.7462 12.2153 27.8071 13.0378 27.8071C14.3172 27.8071 15.4138 27.6548 16.3886 27.3503C17.3634 27.0457 18.1859 26.6497 18.8256 26.1015C19.4957 25.5533 19.9831 24.9442 20.3182 24.2132C20.6838 23.4822 20.8361 22.6904 20.8361 21.8071Z" fill="#9F1F2B"/>
<path d="M28.8781 29.2995V28.5076H29.9138C30.4925 28.5076 31.0104 28.4162 31.4064 28.264C31.8024 28.1117 32.168 27.8376 32.4421 27.4721C32.7772 27.0761 32.96 26.0102 32.96 24.2132V5.72589C32.96 5.23858 32.96 4.81218 32.96 4.47716C32.96 4.14213 32.9295 3.83756 32.899 3.59391C32.8686 3.35025 32.8381 3.13706 32.7772 2.98477C32.7163 2.83249 32.6249 2.6802 32.503 2.52792C32.2289 2.19289 31.8633 1.91878 31.3759 1.73604C30.8885 1.5533 30.4012 1.46193 29.9138 1.46193H28.8781V0.670052H41.1238V1.43147H40.0881C38.961 1.43147 38.1081 1.7665 37.5597 2.46701C37.4074 2.71066 37.2856 3.1066 37.1942 3.62437C37.1028 4.17259 37.0419 4.8731 37.0419 5.72589V24.2132C37.0419 25.1574 37.0723 25.8579 37.1637 26.3756C37.2551 26.8934 37.377 27.2589 37.5293 27.5025C37.5902 27.6244 37.7425 27.7462 37.8948 27.868C38.0471 27.9898 38.2908 28.0812 38.5345 28.1726C38.7782 28.264 39.0524 28.3553 39.2961 28.4162C39.5398 28.4772 39.8139 28.5076 40.0881 28.5076H41.1238V29.2995H28.8781Z" fill="#9F1F2B"/>
<path d="M67.6258 7.40102C67.5649 6.88325 67.504 6.4264 67.4126 6.06091C67.3212 5.69543 67.2298 5.36041 67.108 5.0863C66.9861 4.81218 66.8643 4.56853 66.7424 4.38579C66.6206 4.20305 66.4683 4.02031 66.2855 3.83756C65.8286 3.35025 65.3107 3.01523 64.7015 2.77157C64.0922 2.52792 63.3611 2.43655 62.3864 2.43655H58.3349V24.3046C58.3349 25.2183 58.3958 25.9188 58.4872 26.467C58.5786 27.0152 58.7309 27.4112 58.9137 27.6244C59.4011 28.203 60.2235 28.4772 61.3506 28.4772H62.3559V29.269H50.1711V28.4772H51.2068C51.816 28.4772 52.3339 28.3858 52.7603 28.2335C53.1563 28.0508 53.5219 27.7766 53.7961 27.3807C53.9484 27.1675 54.0397 26.802 54.1311 26.2843C54.1921 25.797 54.253 25.1269 54.253 24.2741V2.43655H50.8412C50.2625 2.43655 49.7751 2.43655 49.3791 2.46701C48.983 2.49746 48.648 2.52792 48.3433 2.61929C48.0692 2.6802 47.795 2.77157 47.5818 2.8934C47.3686 3.01523 47.1553 3.16751 46.9421 3.35025C45.9064 4.11168 45.3276 5.45178 45.1448 7.40102H44.2005L44.5051 0.700508H68.296L68.5397 7.40102H67.6258Z" fill="#9F1F2B"/>
<path d="M95.0417 7.40102C94.9807 6.88325 94.9198 6.4264 94.8284 6.06091C94.737 5.69543 94.6457 5.36041 94.5238 5.0863C94.402 4.81218 94.2801 4.56853 94.1583 4.38579C94.0364 4.20305 93.8841 4.02031 93.7013 3.83756C93.2444 3.35025 92.7265 3.01523 92.1173 2.77157C91.5081 2.52792 90.7465 2.43655 89.8022 2.43655H85.7507V24.3046C85.7507 25.2183 85.8117 25.9188 85.903 26.467C86.0249 27.0152 86.1467 27.4112 86.3295 27.6244C86.8169 28.203 87.6394 28.4772 88.7665 28.4772H89.7717V29.269H77.5869V28.4772H78.6226C79.2319 28.4772 79.7497 28.3858 80.1762 28.2335C80.5722 28.0508 80.9377 27.7766 81.2119 27.3807C81.3642 27.1675 81.4556 26.802 81.547 26.2843C81.6384 25.7665 81.6688 25.1269 81.6688 24.2741V2.43655H78.2571C77.6783 2.43655 77.1909 2.43655 76.7949 2.46701C76.3989 2.49746 76.0638 2.52792 75.7592 2.61929C75.485 2.6802 75.2109 2.77157 74.9976 2.8934C74.7844 3.01523 74.5712 3.16751 74.3579 3.35025C73.3222 4.11168 72.7434 5.45178 72.5607 7.40102H71.6163L71.921 0.700508H95.7118L95.9555 7.40102H95.0417Z" fill="#9F1F2B"/>
<path d="M121.087 29.2995H99.0018V28.5076H100.007C100.129 28.5076 100.281 28.5076 100.494 28.4772C100.708 28.4467 100.89 28.4162 101.104 28.3858C101.317 28.3249 101.53 28.264 101.743 28.1726C101.957 28.0812 102.139 27.9898 102.261 27.868C102.414 27.7462 102.535 27.5939 102.627 27.4416C102.718 27.2893 102.81 27.0761 102.901 26.802C102.962 26.5279 103.023 26.1929 103.053 25.797C103.084 25.401 103.114 24.8528 103.114 24.2437V5.66498C103.114 4.72081 103.053 3.98985 102.962 3.44163C102.87 2.8934 102.718 2.52792 102.566 2.34518C102.048 1.7665 101.195 1.49239 100.007 1.49239H99.0018V0.670052H121.087L121.422 6.91371H120.569C120.478 6.51777 120.386 6.12183 120.295 5.72589C120.234 5.32995 120.112 4.96447 119.99 4.62944C119.868 4.29442 119.686 3.95939 119.472 3.65482C119.259 3.38071 118.954 3.1066 118.589 2.8934C118.223 2.6802 117.736 2.52792 117.188 2.40609C116.609 2.28426 115.908 2.22335 115.055 2.22335H107.105V13.5228H113.41C114.385 13.5228 115.147 13.4619 115.695 13.2792C116.243 13.1269 116.67 12.8832 116.974 12.5482C117.279 12.2132 117.462 11.7868 117.584 11.269C117.705 10.7513 117.827 10.1421 117.919 9.41117H118.711V19.3706H117.919C117.827 18.6091 117.705 18 117.584 17.4518C117.462 16.9036 117.249 16.4772 116.944 16.1421C116.639 15.8071 116.213 15.533 115.665 15.3807C115.116 15.2284 114.355 15.1371 113.38 15.1371H107.074V25.8579C107.074 26.2234 107.135 26.5584 107.287 26.8629C107.409 27.1371 107.653 27.3807 107.988 27.533C108.323 27.6853 108.841 27.7767 109.511 27.7767H114.355C115.116 27.7767 115.817 27.7462 116.396 27.6853C116.974 27.6244 117.523 27.5025 117.98 27.3503C118.437 27.198 118.863 26.9848 119.259 26.7107C119.655 26.4365 119.99 26.1015 120.356 25.6751C120.721 25.2487 121.087 24.7614 121.452 24.1827C121.818 23.6041 122.214 22.9036 122.671 22.1117H123.554L121.087 29.2995Z" fill="#9F1F2B"/>
<path d="M145.304 29.2995L135.617 15.8985C135.252 15.8985 134.917 15.9289 134.612 15.9594C134.338 15.9898 134.064 15.9898 133.85 15.9898C133.637 15.9898 133.424 15.9898 133.241 15.9898C133.028 15.9898 132.815 15.9594 132.571 15.9289V24.2132C132.571 26.0406 132.784 27.1675 133.18 27.5635C133.728 28.203 134.521 28.5076 135.617 28.5076H136.744V29.2995H124.468V28.5076H125.534C126.783 28.5076 127.636 28.1421 128.123 27.3807C128.398 26.9239 128.55 25.8883 128.55 24.2437V5.72589C128.55 3.95939 128.367 2.83249 128.002 2.34518C127.697 2.04061 127.362 1.82741 126.966 1.67513C126.57 1.52284 126.083 1.43147 125.565 1.43147H124.498V0.670052H134.886C136.409 0.670052 137.749 0.730965 138.877 0.822336C140.004 0.913706 140.948 1.09645 141.679 1.3401C142.41 1.58376 143.08 1.91878 143.72 2.31472C144.36 2.74112 144.908 3.22843 145.365 3.77665C145.822 4.35533 146.187 4.96447 146.462 5.69543C146.736 6.39594 146.858 7.15736 146.858 7.9797C146.858 8.86294 146.705 9.68528 146.431 10.4772C146.157 11.269 145.7 11.9695 145.121 12.6091C144.543 13.2487 143.811 13.797 142.928 14.2538C142.045 14.7107 141.009 15.1066 139.821 15.3503L145.67 23.5736C146.309 24.4873 146.919 25.2183 147.467 25.8274C148.015 26.4366 148.564 26.9239 149.142 27.2893C149.721 27.6548 150.3 27.9289 150.909 28.1117C151.518 28.2944 152.249 28.4162 153.011 28.5076V29.2995H145.304ZM142.045 8.37564C142.045 7.46193 141.892 6.67005 141.618 5.90863C141.344 5.14721 140.918 4.53807 140.369 4.02031C139.821 3.50254 139.212 3.04569 138.45 2.74112C137.689 2.43655 136.836 2.28426 135.891 2.25381C135.526 2.25381 135.069 2.28426 134.521 2.34518C133.972 2.40609 133.332 2.49746 132.601 2.61929V14.5584H133.82C135.221 14.5584 136.44 14.4061 137.475 14.1015C138.511 13.797 139.364 13.3706 140.065 12.7919C140.735 12.2437 141.253 11.5736 141.588 10.8122C141.892 10.0812 142.045 9.25888 142.045 8.37564Z" fill="#9F1F2B"/>
<path d="M192.673 22.599C191.972 23.8477 191.21 24.9442 190.388 25.8579C189.566 26.7716 188.682 27.5635 187.707 28.1726C186.733 28.7817 185.666 29.2386 184.539 29.5431C183.412 29.8477 182.163 30 180.792 30C179.33 30 177.959 29.8173 176.711 29.4518C175.462 29.0863 174.304 28.599 173.268 27.9594C172.233 27.3198 171.319 26.5584 170.527 25.6447C169.735 24.731 169.065 23.7563 168.516 22.6904C167.968 21.6244 167.541 20.467 167.267 19.2183C166.993 18 166.841 16.7208 166.841 15.4112C166.841 13.3401 167.206 11.3604 167.877 9.47208C168.577 7.61421 169.552 5.96954 170.831 4.56853C172.111 3.16751 173.634 2.04061 175.462 1.21828C177.259 0.39594 179.269 -0.0304559 181.463 -0.0304559C182.559 -0.0304559 183.504 0.0609147 184.326 0.274113C185.149 0.487311 185.849 0.730965 186.458 0.944163C187.068 1.18782 187.555 1.43147 187.951 1.61421C188.347 1.82741 188.652 1.91878 188.865 1.91878C189.23 1.91878 189.596 1.73604 189.901 1.43147C190.205 1.09645 190.449 0.609138 190.601 -0.0913696H191.363L192.033 9.65482H191.363C190.936 8.19289 190.388 6.94416 189.748 5.87817C189.109 4.84264 188.378 3.98985 187.585 3.3198C186.763 2.64975 185.88 2.16244 184.905 1.85787C183.93 1.5533 182.894 1.40102 181.767 1.40102C180.305 1.40102 178.934 1.67513 177.685 2.22335C176.436 2.77157 175.37 3.62437 174.487 4.78173C173.603 5.93909 172.903 7.37056 172.385 9.13706C171.867 10.8731 171.623 12.9442 171.623 15.3503C171.623 17.3909 171.867 19.1878 172.385 20.7716C172.903 22.3553 173.634 23.665 174.578 24.731C175.523 25.797 176.65 26.6193 177.959 27.1675C179.269 27.7157 180.732 27.9899 182.376 27.9899C183.321 27.9899 184.204 27.8985 184.996 27.7157C185.788 27.533 186.58 27.2284 187.342 26.7716C188.103 26.3147 188.865 25.736 189.626 24.9442C190.388 24.1827 191.18 23.2081 192.033 21.9898L192.673 22.599Z" fill="#9F1F2B"/>
<path d="M217.804 29.2995H195.719V28.5076H196.724C196.846 28.5076 196.998 28.5076 197.212 28.4772C197.425 28.4467 197.608 28.4162 197.821 28.3858C198.034 28.3249 198.247 28.264 198.46 28.1726C198.674 28.0812 198.856 27.9898 198.978 27.868C199.131 27.7462 199.252 27.5939 199.344 27.4416C199.435 27.2893 199.527 27.0761 199.618 26.802C199.679 26.5279 199.74 26.1929 199.77 25.797C199.801 25.401 199.831 24.8528 199.831 24.2437V5.66498C199.831 4.72081 199.77 3.98985 199.679 3.44163C199.588 2.8934 199.435 2.52792 199.283 2.34518C198.765 1.7665 197.912 1.49239 196.724 1.49239H195.719V0.670052H217.804L218.139 6.91371H217.286C217.195 6.51777 217.103 6.12183 217.012 5.72589C216.951 5.32995 216.829 4.96447 216.707 4.62944C216.585 4.29442 216.403 3.95939 216.189 3.65482C215.976 3.38071 215.672 3.1066 215.306 2.8934C214.94 2.6802 214.453 2.52792 213.874 2.40609C213.295 2.28426 212.595 2.22335 211.742 2.22335H203.791V13.5228H210.097C211.072 13.5228 211.833 13.4619 212.382 13.2792C212.93 13.1269 213.356 12.8832 213.661 12.5482C213.966 12.2132 214.179 11.7868 214.27 11.269C214.392 10.7513 214.514 10.1421 214.605 9.41117H215.397V19.3706H214.605C214.514 18.6091 214.392 18 214.27 17.4518C214.148 16.9036 213.935 16.4772 213.631 16.1421C213.326 15.8071 212.899 15.533 212.351 15.3807C211.803 15.2284 211.041 15.1371 210.067 15.1371H203.761V25.8579C203.761 26.2234 203.822 26.5584 203.974 26.8629C204.096 27.1371 204.34 27.3807 204.675 27.533C205.01 27.6853 205.528 27.7767 206.198 27.7767H211.102C211.864 27.7767 212.564 27.7462 213.143 27.6853C213.722 27.6244 214.27 27.5025 214.727 27.3503C215.184 27.198 215.611 26.9848 216.007 26.7107C216.403 26.4365 216.738 26.1015 217.103 25.6751C217.469 25.2487 217.834 24.7614 218.2 24.1827C218.565 23.6041 218.961 22.9036 219.418 22.1117H220.271L217.804 29.2995Z" fill="#9F1F2B"/>
<path d="M243.544 29.2995H221.276V28.5076C221.886 28.5076 222.465 28.4772 222.982 28.4162C223.5 28.3553 223.957 28.203 224.323 27.9594C224.688 27.7157 224.962 27.3807 225.176 26.8934C225.389 26.4061 225.48 25.7665 225.48 24.9746V5.05584C225.48 4.2335 225.389 3.59391 225.176 3.1066C224.962 2.61929 224.688 2.28426 224.323 2.04061C223.957 1.79696 223.5 1.64467 222.982 1.58376C222.465 1.52284 221.886 1.49239 221.276 1.49239V0.670052H233.705V1.46193C233.065 1.46193 232.487 1.49239 231.969 1.5533C231.451 1.61421 231.024 1.7665 230.628 2.01015C230.263 2.25381 229.958 2.61929 229.775 3.07614C229.562 3.56345 229.471 4.20305 229.471 5.02538V23.9086C229.471 24.731 229.532 25.3706 229.684 25.8274C229.836 26.3147 230.05 26.6497 230.354 26.8934C230.659 27.1371 231.024 27.2893 231.481 27.3503C231.938 27.4112 232.487 27.4416 233.096 27.4416H235.99C236.873 27.4416 237.604 27.4416 238.244 27.4112C238.884 27.3807 239.401 27.3198 239.889 27.2284C240.346 27.1371 240.772 27.0152 241.107 26.8629C241.473 26.7107 241.777 26.4975 242.082 26.2234C242.448 25.9188 242.752 25.6142 243.057 25.3096C243.331 25.0051 243.605 24.6701 243.849 24.3046C244.093 23.9391 244.336 23.5127 244.58 23.0558C244.824 22.599 245.067 22.0508 245.342 21.4112L246.073 21.5025L243.544 29.2995Z" fill="#9F1F2B"/>
<path d="M271.417 29.2995H249.149V28.5076C249.759 28.5076 250.337 28.4772 250.855 28.4162C251.373 28.3553 251.83 28.203 252.195 27.9594C252.561 27.7157 252.835 27.3807 253.048 26.8934C253.262 26.4061 253.353 25.7665 253.353 24.9746V5.05584C253.353 4.2335 253.262 3.59391 253.048 3.1066C252.835 2.61929 252.561 2.28426 252.195 2.04061C251.83 1.79696 251.373 1.64467 250.855 1.58376C250.337 1.52284 249.759 1.49239 249.149 1.49239V0.670052H261.578V1.46193C260.938 1.46193 260.359 1.49239 259.841 1.5533C259.324 1.61421 258.897 1.7665 258.501 2.01015C258.136 2.25381 257.831 2.61929 257.648 3.07614C257.435 3.56345 257.344 4.20305 257.344 5.02538V23.9086C257.344 24.731 257.405 25.3706 257.557 25.8274C257.709 26.3147 257.922 26.6497 258.227 26.8934C258.532 27.1371 258.897 27.2893 259.354 27.3503C259.811 27.4112 260.359 27.4416 260.969 27.4416H263.862C264.746 27.4416 265.477 27.4416 266.117 27.4112C266.756 27.3807 267.274 27.3198 267.762 27.2284C268.219 27.1371 268.645 27.0152 268.98 26.8629C269.346 26.7107 269.65 26.4975 269.955 26.2234C270.32 25.9188 270.625 25.6142 270.93 25.3096C271.204 25.0051 271.478 24.6701 271.722 24.3046C271.965 23.9391 272.209 23.5127 272.453 23.0558C272.696 22.599 272.94 22.0508 273.214 21.4112L273.945 21.5025L271.417 29.2995Z" fill="#9F1F2B"/>
<path d="M296 22.0203C296 23.1168 295.787 24.1218 295.33 25.0964C294.873 26.0711 294.264 26.9239 293.472 27.6244C292.68 28.3553 291.705 28.934 290.608 29.3604C289.512 29.7868 288.293 30 286.953 30C285.978 30 285.095 29.9086 284.303 29.7563C283.511 29.6041 282.779 29.3909 282.14 29.1777C281.5 28.9645 280.952 28.7817 280.464 28.599C279.977 28.4162 279.581 28.3553 279.246 28.3553C278.911 28.3553 278.637 28.4772 278.423 28.7208C278.21 28.9645 278.058 29.3909 277.966 30H277.205V20.1624H277.966C278.149 21.6548 278.515 22.9036 279.033 23.9391C279.55 24.9746 280.221 25.8274 280.982 26.467C281.744 27.1371 282.597 27.5939 283.571 27.8985C284.546 28.203 285.491 28.3553 286.526 28.3553C287.41 28.3553 288.202 28.2335 288.902 27.9899C289.603 27.7462 290.212 27.4112 290.7 26.9543C291.187 26.4975 291.583 26.0406 291.857 25.4619C292.131 24.8833 292.253 24.3046 292.253 23.665C292.253 22.9645 292.131 22.3553 291.888 21.8071C291.644 21.2589 291.248 20.7411 290.7 20.2538C290.151 19.7665 289.42 19.2487 288.567 18.7005C287.684 18.1523 286.618 17.5431 285.369 16.8426C283.663 15.868 282.262 15.0152 281.195 14.2843C280.099 13.5228 279.246 12.8223 278.637 12.1218C278.027 11.4213 277.601 10.7208 277.357 10.0203C277.113 9.3198 277.022 8.49746 277.022 7.61421C277.022 6.60914 277.205 5.63452 277.601 4.72081C277.997 3.80711 278.545 3.01523 279.276 2.31472C280.007 1.61421 280.891 1.06599 281.896 0.670052C282.901 0.274113 284.089 0.0609153 285.369 0.0609153C286.191 0.0609153 286.953 0.152286 287.653 0.30457C288.354 0.456854 288.933 0.670052 289.481 0.852794C290.029 1.06599 290.486 1.24873 290.913 1.40102C291.339 1.5533 291.674 1.64467 292.009 1.64467C292.345 1.64467 292.619 1.52284 292.832 1.27919C293.045 1.03553 293.228 0.639596 293.38 0.0304585H294.172V9.95939H293.38C293.228 8.61929 292.923 7.40102 292.466 6.39594C292.009 5.39086 291.4 4.50762 290.7 3.80711C289.999 3.1066 289.176 2.58883 288.293 2.22335C287.379 1.85787 286.435 1.70559 285.43 1.70559C284.729 1.70559 284.089 1.82741 283.48 2.07107C282.871 2.31472 282.322 2.61929 281.896 3.04569C281.47 3.47208 281.074 3.92894 280.83 4.4467C280.556 4.99493 280.434 5.54315 280.434 6.15229C280.434 6.76142 280.525 7.21828 280.738 7.70559C280.952 8.16244 281.317 8.64975 281.866 9.16751C282.414 9.65482 283.145 10.203 284.059 10.7817C284.973 11.3604 286.13 12.0305 287.562 12.7919C288.933 13.5228 290.06 14.1624 290.943 14.7107C291.827 15.2589 292.527 15.7462 293.045 16.1117C294.02 16.8426 294.781 17.6954 295.33 18.731C295.756 19.7056 296 20.802 296 22.0203Z" fill="#9F1F2B"/>
</g>
<defs>
<clipPath id="clip0_29_4">
<rect width="296" height="30" fill="white"/>
</clipPath>
</defs>
</svg>
