<svg width="1071" height="121" viewBox="0 0 1071 121" fill="none" xmlns="http://www.w3.org/2000/svg">
<g clip-path="url(#clip0_63_145)">
<path d="M103.397 86.6042C103.397 88.6925 103.152 90.7808 102.662 92.8691C102.173 94.9575 101.439 97.0458 100.46 99.1341C99.481 101.222 98.2574 103.065 96.789 105.031C95.3207 106.873 93.6076 108.47 91.7722 110.067C89.9367 111.541 87.8565 112.77 85.654 113.752C83.3291 114.858 80.6371 115.718 77.7004 116.332C74.6414 117.069 71.2152 117.561 67.4219 117.806C63.5063 118.175 59.2236 118.298 54.2068 118.298H0V115.104H4.16034C8.93249 115.104 12.3587 113.63 14.5612 110.558C15.173 109.576 15.5401 108.102 15.9072 106.013C16.2743 103.925 16.3966 101.222 16.3966 97.9057V23.0945C16.3966 15.9696 15.6624 11.4245 14.0717 9.45898C12.9705 8.23056 11.6245 7.37066 10.0338 6.75644C8.32068 6.14223 6.48523 5.7737 4.16034 5.7737H0V2.70264H49.6793C56.4093 2.70264 62.4051 3.19401 67.4219 4.05391C72.4388 4.9138 76.7215 6.14223 80.27 7.73919C83.8186 9.2133 86.7553 11.0559 89.0802 13.1443C91.4051 15.2326 93.2405 17.3209 94.5865 19.6549C95.9325 21.9889 96.789 24.3229 97.2785 26.657C97.7679 28.991 98.0127 31.4478 98.0127 33.7818C98.0127 36.6072 97.5232 39.3097 96.6667 41.8894C95.8101 44.4691 94.4641 46.926 92.7511 49.1372C91.038 51.3483 88.8354 53.3138 86.2658 55.0336C83.6962 56.7534 80.6371 58.2275 77.0886 59.2102C81.616 60.0701 85.5316 61.4214 88.8354 63.1412C92.1392 64.861 94.8312 66.9493 97.0338 69.4062C99.2363 71.7402 100.827 74.4427 101.806 77.391C102.785 80.2163 103.397 83.2874 103.397 86.6042ZM80.27 32.7991C80.27 29.4823 79.6582 26.4113 78.3122 23.463C76.9662 20.5148 75.0084 17.9351 72.3165 15.724C69.6245 13.5128 66.3207 11.793 62.2827 10.4417C58.2447 9.09045 53.5949 8.47624 48.0886 8.47624C45.1519 8.47624 42.4599 8.59908 39.8903 8.84477C37.3207 9.09045 34.9958 9.58182 32.6709 10.196V54.6651C34.8734 55.1564 37.3207 55.525 39.8903 55.6478C42.4599 55.7707 45.519 55.8935 48.8228 55.8935C54.4515 55.8935 59.2236 55.4021 63.1392 54.2965C67.0549 53.3138 70.3587 51.7168 72.8059 49.7514C75.3755 47.7859 77.211 45.4519 78.3122 42.5036C79.6582 39.6783 80.27 36.3615 80.27 32.7991ZM83.6962 87.9554C83.6962 84.0245 82.962 80.5849 81.3713 77.391C79.7806 74.197 77.5781 71.3717 74.519 69.0377C71.4599 66.7036 67.789 64.861 63.2616 63.6326C58.7342 62.2813 53.5949 61.6671 47.8439 61.6671C44.173 61.6671 41.2363 61.6671 38.789 61.7899C36.3418 61.9128 34.384 62.1585 32.7932 62.4042V109.821C36.097 110.558 39.4008 111.173 42.5823 111.541C45.7637 111.91 49.0675 112.155 52.3713 112.155C57.5106 112.155 61.9156 111.541 65.8312 110.313C69.7468 109.084 73.0506 107.487 75.6203 105.276C78.3122 103.065 80.27 100.608 81.616 97.66C83.0844 94.7118 83.6962 91.5179 83.6962 87.9554Z" fill="#9F1F2B"/>
<path d="M116 118.175V114.981H120.16C122.485 114.981 124.565 114.612 126.156 113.998C127.747 113.384 129.215 112.278 130.316 110.804C131.662 109.207 132.397 104.908 132.397 97.66V23.0945C132.397 21.129 132.397 19.4092 132.397 18.058C132.397 16.7067 132.274 15.4783 132.152 14.4955C132.03 13.5128 131.907 12.6529 131.662 12.0387C131.418 11.4245 131.051 10.8103 130.561 10.196C129.46 8.84477 127.992 7.73918 126.034 7.00213C124.076 6.26507 122.118 5.89655 120.16 5.89655H116V2.70264H165.19V5.7737H161.03C156.502 5.7737 153.076 7.12497 150.873 9.95035C150.262 10.9331 149.772 12.53 149.405 14.6184C149.038 16.8295 148.793 19.6549 148.793 23.0945V97.66C148.793 101.468 148.916 104.293 149.283 106.382C149.65 108.47 150.139 109.944 150.751 110.927C150.996 111.418 151.608 111.91 152.219 112.401C152.831 112.892 153.81 113.261 154.789 113.63C155.768 113.998 156.869 114.367 157.848 114.612C158.827 114.858 159.928 114.981 161.03 114.981H165.19V118.175H116Z" fill="#9F1F2B"/>
<path d="M271.646 29.8506C271.401 27.7622 271.156 25.9196 270.789 24.4455C270.422 22.9714 270.055 21.6201 269.565 20.5145C269.076 19.409 268.587 18.4262 268.097 17.6892C267.608 16.9521 266.996 16.215 266.262 15.478C264.426 13.5125 262.346 12.1612 259.899 11.1785C257.452 10.1958 254.515 9.82723 250.599 9.82723H234.325V98.0282C234.325 101.714 234.57 104.539 234.937 106.75C235.304 108.961 235.916 110.558 236.65 111.418C238.608 113.752 241.911 114.858 246.439 114.858H250.477V118.052H201.532V114.858H205.692C208.139 114.858 210.219 114.489 211.933 113.875C213.523 113.138 214.992 112.032 216.093 110.435C216.705 109.575 217.072 108.101 217.439 106.013C217.684 104.048 217.928 101.345 217.928 97.9054V9.82723H204.224C201.899 9.82723 199.941 9.82723 198.35 9.95007C196.76 10.0729 195.414 10.1958 194.19 10.5643C193.089 10.81 191.987 11.1785 191.131 11.6699C190.274 12.1612 189.418 12.7754 188.561 13.5125C184.401 16.5836 182.076 21.9886 181.342 29.8506H177.549L178.772 2.8252H274.338L275.317 29.8506H271.646Z" fill="#9F1F2B"/>
<path d="M381.772 29.8506C381.527 27.7622 381.283 25.9196 380.916 24.4455C380.548 22.9714 380.181 21.6201 379.692 20.5145C379.202 19.409 378.713 18.4262 378.224 17.6892C377.734 16.9521 377.122 16.215 376.388 15.478C374.553 13.5125 372.472 12.1612 370.025 11.1785C367.578 10.1958 364.519 9.82723 360.726 9.82723H344.451V98.0282C344.451 101.714 344.696 104.539 345.063 106.75C345.553 108.961 346.042 110.558 346.776 111.418C348.734 113.752 352.038 114.858 356.565 114.858H360.603V118.052H311.658V114.858H315.819C318.266 114.858 320.346 114.489 322.059 113.875C323.65 113.138 325.118 112.032 326.219 110.435C326.831 109.575 327.198 108.101 327.565 106.013C327.932 103.925 328.055 101.345 328.055 97.9054V9.82723H314.35C312.025 9.82723 310.067 9.82723 308.477 9.95007C306.886 10.0729 305.54 10.1958 304.316 10.5643C303.215 10.81 302.114 11.1785 301.257 11.6699C300.401 12.1612 299.544 12.7754 298.688 13.5125C294.527 16.5836 292.202 21.9886 291.468 29.8506H287.675L288.899 2.8252H384.464L385.443 29.8506H381.772Z" fill="#9F1F2B"/>
<path d="M486.392 118.175H397.679V114.981H401.717C402.207 114.981 402.818 114.981 403.675 114.858C404.532 114.735 405.266 114.612 406.122 114.489C406.979 114.244 407.835 113.998 408.692 113.63C409.548 113.261 410.283 112.892 410.772 112.401C411.384 111.91 411.873 111.296 412.24 110.681C412.607 110.067 412.975 109.207 413.342 108.102C413.586 106.996 413.831 105.645 413.953 104.048C414.076 102.451 414.198 100.24 414.198 97.7828V22.8488C414.198 19.0407 413.953 16.0925 413.586 13.8813C413.219 11.6701 412.607 10.196 411.996 9.45898C409.916 7.12497 406.489 6.01939 401.717 6.01939H397.679V2.70264H486.392L487.738 27.8854H484.312C483.945 26.2884 483.578 24.6915 483.211 23.0945C482.966 21.4976 482.477 20.0234 481.987 18.6722C481.498 17.3209 480.764 15.9696 479.907 14.7412C479.051 13.6356 477.827 12.53 476.359 11.6701C474.89 10.8103 472.932 10.196 470.73 9.70467C468.405 9.2133 465.591 8.96761 462.164 8.96761H430.228V54.5422H455.557C459.472 54.5422 462.532 54.2965 464.734 53.5595C466.937 52.9453 468.65 51.9625 469.873 50.6113C471.097 49.26 471.831 47.5402 472.321 45.4519C472.81 43.3635 473.299 40.9067 473.667 37.9585H476.848V78.128H473.667C473.299 75.0569 472.81 72.6001 472.321 70.3889C471.831 68.1778 470.975 66.458 469.751 65.1067C468.527 63.7554 466.814 62.6498 464.612 62.0356C462.409 61.4214 459.35 61.0529 455.434 61.0529H430.105V104.294C430.105 105.768 430.35 107.119 430.962 108.347C431.451 109.453 432.43 110.436 433.776 111.05C435.122 111.664 437.202 112.033 439.894 112.033H459.35C462.409 112.033 465.224 111.91 467.548 111.664C469.873 111.418 472.076 110.927 473.911 110.313C475.747 109.699 477.46 108.839 479.051 107.733C480.641 106.628 481.987 105.276 483.456 103.556C484.924 101.837 486.392 99.8712 487.861 97.5372C489.329 95.2031 490.92 92.3778 492.755 89.1839H496.304L486.392 118.175Z" fill="#9F1F2B"/>
<path d="M583.671 118.175L544.759 64.124C543.291 64.124 541.945 64.2468 540.721 64.3696C539.62 64.4925 538.519 64.4925 537.662 64.4925C536.806 64.4925 535.949 64.4925 535.215 64.4925C534.359 64.4925 533.502 64.3696 532.523 64.2468V97.66C532.523 105.031 533.38 109.576 534.97 111.173C537.173 113.752 540.354 114.981 544.759 114.981H549.287V118.175H499.975V114.981H504.257C509.274 114.981 512.7 113.507 514.658 110.436C515.759 108.593 516.371 104.416 516.371 97.7828V23.0945C516.371 15.9696 515.637 11.4245 514.169 9.45898C512.945 8.23056 511.599 7.37066 510.008 6.75644C508.418 6.14223 506.46 5.7737 504.38 5.7737H500.097V2.70264H541.823C547.941 2.70264 553.325 2.94832 557.852 3.31685C562.38 3.68538 566.173 4.42243 569.11 5.40517C572.046 6.38792 574.738 7.73918 577.308 9.33614C579.878 11.0559 582.08 13.0214 583.916 15.2326C585.751 17.5666 587.219 20.0234 588.321 22.9717C589.422 25.7971 589.911 28.8681 589.911 32.1849C589.911 35.7473 589.3 39.0641 588.198 42.258C587.097 45.4519 585.262 48.2773 582.937 50.857C580.612 53.4366 577.675 55.6478 574.127 57.4904C570.578 59.3331 566.418 60.93 561.645 61.9128L585.139 95.0803C587.709 98.7656 590.156 101.714 592.359 104.171C594.561 106.628 596.764 108.593 599.089 110.067C601.413 111.541 603.738 112.647 606.186 113.384C608.633 114.121 611.57 114.612 614.629 114.981V118.175H583.671ZM570.578 33.7818C570.578 30.0965 569.966 26.9026 568.865 23.8316C567.764 20.7605 566.051 18.3037 563.848 16.2153C561.645 14.127 559.198 12.2844 556.139 11.0559C553.08 9.82751 549.654 9.2133 545.861 9.09045C544.392 9.09045 542.557 9.2133 540.354 9.45898C538.152 9.70467 535.582 10.0732 532.645 10.5646V58.7189H537.54C543.169 58.7189 548.063 58.1047 552.224 56.8762C556.384 55.6478 559.81 53.928 562.624 51.594C565.316 49.3828 567.397 46.6803 568.743 43.6092C569.966 40.661 570.578 37.3443 570.578 33.7818Z" fill="#9F1F2B"/>
<path d="M773.945 91.1491C771.131 96.1857 768.072 100.608 764.768 104.293C761.464 107.979 757.916 111.172 754 113.629C750.085 116.086 745.802 117.929 741.274 119.157C736.747 120.386 731.73 121 726.224 121C720.35 121 714.844 120.263 709.827 118.789C704.81 117.315 700.161 115.349 696 112.769C691.84 110.19 688.169 107.119 684.988 103.433C681.806 99.7481 679.114 95.8171 676.912 91.5176C674.709 87.2181 672.996 82.5501 671.895 77.5136C670.793 72.5999 670.182 67.4405 670.182 62.1582C670.182 53.8049 671.65 45.8202 674.342 38.2039C677.156 30.7105 681.072 24.077 686.211 18.4263C691.35 12.7755 697.469 8.23033 704.81 4.91358C712.03 1.59683 720.106 -0.122967 728.916 -0.122967C733.321 -0.122967 737.114 0.245561 740.418 1.10546C743.722 1.96536 746.536 2.9481 748.983 3.808C751.431 4.79074 753.388 5.77348 754.979 6.51054C756.57 7.37043 757.793 7.73896 758.65 7.73896C760.118 7.73896 761.587 7.00191 762.81 5.77348C764.034 4.42221 765.013 2.45673 765.625 -0.368652H768.684L771.376 38.941H768.684C766.971 33.0445 764.768 28.008 762.199 23.7085C759.629 19.5319 756.692 16.0923 753.511 13.3897C750.207 10.6872 746.658 8.7217 742.743 7.49328C738.827 6.26485 734.667 5.65064 730.139 5.65064C724.266 5.65064 718.76 6.75622 713.743 8.96739C708.726 11.1786 704.443 14.6181 700.895 19.2862C697.346 23.9542 694.532 29.7278 692.452 36.8527C690.372 43.8547 689.393 52.208 689.393 61.9126C689.393 70.143 690.372 77.3907 692.452 83.7786C694.532 90.1664 697.469 95.4486 701.262 99.7481C705.055 104.048 709.582 107.364 714.844 109.576C720.106 111.787 725.979 112.892 732.587 112.892C736.38 112.892 739.928 112.524 743.11 111.787C746.291 111.05 749.473 109.821 752.532 107.979C755.591 106.136 758.65 103.802 761.709 100.608C764.768 97.5369 767.95 93.606 771.376 88.6923L773.945 91.1491Z" fill="#9F1F2B"/>
<path d="M874.895 118.175H786.182V114.981H790.22C790.709 114.981 791.321 114.981 792.177 114.858C793.034 114.735 793.768 114.612 794.625 114.489C795.481 114.244 796.338 113.998 797.194 113.63C798.051 113.261 798.785 112.892 799.274 112.401C799.886 111.91 800.376 111.296 800.743 110.681C801.11 110.067 801.477 109.207 801.844 108.102C802.089 106.996 802.334 105.645 802.456 104.048C802.578 102.451 802.701 100.24 802.701 97.7828V22.8488C802.701 19.0407 802.456 16.0925 802.089 13.8813C801.722 11.6701 801.11 10.196 800.498 9.45898C798.418 7.12497 794.992 6.01939 790.22 6.01939H786.182V2.70264H874.895L876.241 27.8854H872.815C872.447 26.2884 872.08 24.6915 871.713 23.0945C871.469 21.4976 870.979 20.0234 870.49 18.6722C870 17.3209 869.266 15.9696 868.41 14.7412C867.553 13.6356 866.329 12.53 864.861 11.6701C863.393 10.8103 861.435 10.196 859.11 9.70467C856.785 9.2133 853.971 8.96761 850.544 8.96761H818.608V54.5422H843.937C847.853 54.5422 850.912 54.2965 853.114 53.5595C855.317 52.9453 857.03 51.9625 858.253 50.6113C859.477 49.26 860.334 47.5402 860.701 45.4519C861.19 43.3635 861.68 40.9067 862.047 37.9585H865.228V78.128H862.047C861.68 75.0569 861.19 72.6001 860.701 70.3889C860.211 68.1778 859.355 66.458 858.131 65.1067C856.907 63.7554 855.194 62.6498 852.992 62.0356C850.789 61.4214 847.73 61.0529 843.815 61.0529H818.485V104.294C818.485 105.768 818.73 107.119 819.342 108.347C819.831 109.453 820.81 110.436 822.156 111.05C823.502 111.664 825.583 112.033 828.274 112.033H847.975C851.034 112.033 853.848 111.91 856.173 111.664C858.498 111.418 860.701 110.927 862.536 110.313C864.372 109.699 866.085 108.839 867.675 107.733C869.266 106.628 870.612 105.276 872.08 103.556C873.549 101.837 875.017 99.8712 876.485 97.5372C877.954 95.2031 879.544 92.3778 881.38 89.1839H884.806L874.895 118.175Z" fill="#9F1F2B"/>
<path d="M978.291 118.175H888.844V114.981C891.291 114.981 893.616 114.858 895.696 114.612C897.776 114.367 899.612 113.752 901.08 112.77C902.548 111.787 903.65 110.436 904.506 108.47C905.363 106.505 905.73 103.925 905.73 100.731V20.392C905.73 17.0752 905.363 14.4955 904.506 12.53C903.65 10.5646 902.548 9.2133 901.08 8.23056C899.612 7.24781 897.776 6.6336 895.696 6.38792C893.616 6.14223 891.291 6.01939 888.844 6.01939V2.70264H938.768V5.89655C936.198 5.89655 933.873 6.01939 931.793 6.26507C929.713 6.51076 928 7.12497 926.409 8.10771C924.941 9.09045 923.717 10.5646 922.983 12.4072C922.126 14.3727 921.759 16.9524 921.759 20.2691V96.4316C921.759 99.7483 922.004 102.328 922.616 104.171C923.228 106.136 924.084 107.487 925.308 108.47C926.532 109.453 928 110.067 929.835 110.313C931.671 110.558 933.873 110.681 936.321 110.681H947.945C951.494 110.681 954.43 110.681 957 110.558C959.569 110.436 961.65 110.19 963.607 109.821C965.443 109.453 967.156 108.962 968.502 108.347C969.97 107.733 971.194 106.873 972.418 105.768C973.886 104.539 975.11 103.311 976.333 102.082C977.434 100.854 978.536 99.5026 979.515 98.0285C980.494 96.5544 981.472 94.8346 982.451 92.992C983.43 91.1493 984.409 88.9382 985.51 86.3585L988.447 86.727L978.291 118.175Z" fill="#9F1F2B"/>
<path d="M1090.25 118.175H1000.81V114.981C1003.25 114.981 1005.58 114.858 1007.66 114.612C1009.74 114.367 1011.57 113.752 1013.04 112.77C1014.51 111.787 1015.61 110.436 1016.47 108.47C1017.32 106.505 1017.69 103.925 1017.69 100.731V20.392C1017.69 17.0752 1017.32 14.4955 1016.47 12.53C1015.61 10.5646 1014.51 9.2133 1013.04 8.23056C1011.57 7.24781 1009.74 6.6336 1007.66 6.38792C1005.58 6.14223 1003.25 6.01939 1000.81 6.01939V2.70264H1050.73V5.89655C1048.16 5.89655 1045.84 6.01939 1043.76 6.26507C1041.67 6.51076 1039.96 7.12497 1038.37 8.10771C1036.9 9.09045 1035.68 10.5646 1034.94 12.4072C1034.09 14.3727 1033.72 16.9524 1033.72 20.2691V96.4316C1033.72 99.7483 1033.97 102.328 1034.58 104.171C1035.19 106.136 1036.05 107.487 1037.27 108.47C1038.49 109.453 1039.96 110.067 1041.8 110.313C1043.63 110.558 1045.84 110.681 1048.28 110.681H1059.91C1063.46 110.681 1066.39 110.681 1068.96 110.558C1071.53 110.436 1073.61 110.19 1075.57 109.821C1077.4 109.453 1079.12 108.962 1080.46 108.347C1081.93 107.733 1083.16 106.873 1084.38 105.768C1085.85 104.539 1087.07 103.311 1088.3 102.082C1089.4 100.854 1090.5 99.5026 1091.48 98.0285C1092.46 96.5544 1093.43 94.8346 1094.41 92.992C1095.39 91.1493 1096.37 88.9382 1097.47 86.3585L1100.41 86.727L1090.25 118.175Z" fill="#9F1F2B"/>
</g>
<defs>
<clipPath id="clip0_63_145">
<rect width="1189" height="121" fill="white"/>
</clipPath>
</defs>
</svg>
