<svg width="800" height="90" viewBox="0 0 800 90" fill="none" xmlns="http://www.w3.org/2000/svg">
<g clip-path="url(#clip0_63_145)">
<path d="M77.2214 64.4163C77.2214 65.9696 77.0386 67.5229 76.6731 69.0762C76.3075 70.6295 75.7592 72.1828 75.0281 73.7361C74.297 75.2894 73.3831 76.66 72.2865 78.1219C71.1899 79.4925 69.9105 80.6803 68.5397 81.8681C67.1689 82.9646 65.6153 83.8783 63.9704 84.6092C62.234 85.4316 60.2235 86.0712 58.0303 86.528C55.7456 87.0762 53.1868 87.4417 50.3538 87.6245C47.4295 87.8986 44.2309 87.9899 40.4841 87.9899H0V85.6143H3.10713C6.6712 85.6143 9.23001 84.5179 10.875 82.2336C11.3319 81.5026 11.6061 80.4062 11.8802 78.8529C12.1544 77.2996 12.2458 75.2894 12.2458 72.8224V17.1778C12.2458 11.8783 11.6974 8.49756 10.5094 7.03563C9.68694 6.12193 8.68169 5.48233 7.49367 5.02548C6.21426 4.56863 4.84347 4.29452 3.10713 4.29452H0V2.01025H37.1028C42.1291 2.01025 46.607 2.37574 50.3538 3.01533C54.1006 3.65492 57.2992 4.56863 59.9494 5.75645C62.5996 6.85289 64.7928 8.22345 66.5292 9.77675C68.2655 11.3301 69.6363 12.8833 70.6416 14.6194C71.6468 16.3554 72.2865 18.0915 72.6521 19.8275C73.0176 21.5636 73.2004 23.391 73.2004 25.127C73.2004 27.2285 72.8348 29.2387 72.1951 31.1575C71.5554 33.0762 70.5502 34.9037 69.2708 36.5483C67.9914 38.193 66.3464 39.6549 64.4273 40.9341C62.5082 42.2133 60.2235 43.3097 57.5733 44.0407C60.9546 44.6803 63.879 45.6854 66.3464 46.9646C68.8138 48.2438 70.8243 49.7971 72.4693 51.6245C74.1142 53.3605 75.3023 55.3707 76.0333 57.5635C76.7644 59.6651 77.2214 61.9493 77.2214 64.4163ZM59.9494 24.396C59.9494 21.929 59.4924 19.6448 58.4872 17.4519C57.4819 15.259 56.0198 13.3402 54.0093 11.6955C51.9988 10.0509 49.5313 8.77168 46.5156 7.7666C43.4998 6.76152 40.0272 6.30467 35.9148 6.30467C33.7215 6.30467 31.711 6.39604 29.7919 6.57878C27.8728 6.76152 26.1365 7.12701 24.4001 7.58386V40.66C26.0451 41.0255 27.8728 41.2996 29.7919 41.391C31.711 41.4823 33.9957 41.5737 36.4631 41.5737C40.6669 41.5737 44.2309 41.2082 47.1553 40.3859C50.0797 39.6549 52.5471 38.4671 54.3748 37.0052C56.2939 35.5432 57.6647 33.8072 58.4872 31.6143C59.4924 29.5128 59.9494 27.0458 59.9494 24.396ZM62.5082 65.4214C62.5082 62.4976 61.9599 59.9392 60.7718 57.5635C59.5838 55.1879 57.9389 53.0864 55.6542 51.3504C53.3696 49.6143 50.628 48.2438 47.2467 47.33C43.8654 46.325 40.0272 45.8681 35.732 45.8681C32.9904 45.8681 30.7972 45.8681 28.9694 45.9595C27.1417 46.0509 25.6795 46.2336 24.4915 46.4163V81.6854C26.9589 82.2336 29.4264 82.6905 31.8024 82.9646C34.1785 83.2387 36.6459 83.4214 39.1133 83.4214C42.9515 83.4214 46.2414 82.9646 49.1658 82.0509C52.0902 81.1372 54.5576 79.9493 56.4767 78.3047C58.4872 76.66 59.9494 74.8326 60.9546 72.6397C62.0513 70.4468 62.5082 68.0712 62.5082 65.4214Z" fill="#9F1F2B"/>
<path d="M86.6342 87.8986V85.5229H89.7413C91.4776 85.5229 93.0312 85.2488 94.2192 84.792C95.4072 84.3351 96.5039 83.5128 97.3263 82.4163C98.3316 81.2285 98.8799 78.0306 98.8799 72.6397V17.1778C98.8799 15.7158 98.8799 14.4366 98.8799 13.4316C98.8799 12.4265 98.7885 11.5128 98.6971 10.7818C98.6057 10.0509 98.5144 9.41127 98.3316 8.95442C98.1488 8.49756 97.8747 8.04071 97.5091 7.58386C96.6866 6.57878 95.59 5.75645 94.1278 5.20822C92.6656 4.66 91.2035 4.38589 89.7413 4.38589H86.6342V2.01025H123.371V4.29452H120.264C116.883 4.29452 114.324 5.29959 112.679 7.40112C112.222 8.13208 111.857 9.3199 111.583 10.8732C111.308 12.5179 111.126 14.6194 111.126 17.1778V72.6397C111.126 75.4722 111.217 77.5737 111.491 79.127C111.765 80.6803 112.131 81.7768 112.588 82.5077C112.771 82.8732 113.228 83.2387 113.684 83.6042C114.141 83.9696 114.872 84.2438 115.604 84.5179C116.335 84.792 117.157 85.0661 117.888 85.2488C118.619 85.4316 119.442 85.5229 120.264 85.5229H123.371V87.8986H86.6342Z" fill="#9F1F2B"/>
<path d="M202.877 22.2031C202.695 20.6498 202.512 19.2792 202.238 18.1828C201.964 17.0863 201.689 16.0813 201.324 15.2589C200.958 14.4366 200.593 13.7056 200.227 13.1574C199.862 12.6092 199.405 12.061 198.856 11.5127C197.486 10.0508 195.932 9.04573 194.104 8.31476C192.277 7.5838 190.083 7.30968 187.159 7.30968H175.005V72.9137C175.005 75.6549 175.187 77.7564 175.462 79.4011C175.736 81.0457 176.193 82.2335 176.741 82.8731C178.203 84.6092 180.671 85.4315 184.052 85.4315H187.068V87.8071H150.513V85.4315H153.62C155.448 85.4315 157.002 85.1574 158.281 84.7005C159.469 84.1523 160.566 83.33 161.388 82.1422C161.845 81.5026 162.119 80.4061 162.393 78.8528C162.576 77.3909 162.759 75.3807 162.759 72.8224V7.30968H152.524C150.787 7.30968 149.325 7.30968 148.137 7.40106C146.949 7.49243 145.944 7.5838 145.03 7.85791C144.207 8.04065 143.385 8.31476 142.745 8.68024C142.106 9.04572 141.466 9.50258 140.826 10.0508C137.719 12.3351 135.983 16.3554 135.434 22.2031H132.601L133.515 2.10156H204.888L205.619 22.2031H202.877Z" fill="#9F1F2B"/>
<path d="M285.125 22.2031C284.942 20.6498 284.759 19.2792 284.485 18.1828C284.211 17.0863 283.937 16.0813 283.571 15.2589C283.206 14.4366 282.84 13.7056 282.475 13.1574C282.109 12.6092 281.652 12.061 281.104 11.5127C279.733 10.0508 278.18 9.04573 276.352 8.31476C274.524 7.5838 272.24 7.30968 269.407 7.30968H257.252V72.9137C257.252 75.6549 257.435 77.7564 257.709 79.4011C258.075 81.0457 258.44 82.2335 258.989 82.8731C260.451 84.6092 262.918 85.4315 266.299 85.4315H269.315V87.8071H232.761V85.4315H235.868C237.696 85.4315 239.249 85.1574 240.529 84.7005C241.717 84.1523 242.813 83.33 243.636 82.1422C244.093 81.5026 244.367 80.4061 244.641 78.8528C244.915 77.2995 245.006 75.3807 245.006 72.8224V7.30968H234.771C233.035 7.30968 231.573 7.30968 230.385 7.40106C229.197 7.49243 228.191 7.5838 227.278 7.85791C226.455 8.04065 225.633 8.31476 224.993 8.68024C224.353 9.04572 223.713 9.50258 223.074 10.0508C219.967 12.3351 218.23 16.3554 217.682 22.2031H214.849L215.763 2.10156H287.136L287.867 22.2031H285.125Z" fill="#9F1F2B"/>
<path d="M363.26 87.8986H297.005V85.5229H300.021C300.387 85.5229 300.843 85.5229 301.483 85.4316C302.123 85.3402 302.671 85.2488 303.311 85.1575C303.951 84.9747 304.59 84.792 305.23 84.5179C305.87 84.2438 306.418 83.9696 306.784 83.6042C307.241 83.2387 307.606 82.7818 307.88 82.325C308.154 81.8681 308.429 81.2285 308.703 80.4062C308.885 79.5839 309.068 78.5788 309.16 77.391C309.251 76.2031 309.342 74.5585 309.342 72.7311V16.995C309.342 14.1625 309.16 11.9696 308.885 10.325C308.611 8.6803 308.154 7.58386 307.697 7.03563C306.144 5.29959 303.585 4.47726 300.021 4.47726H297.005V2.01025H363.26L364.266 20.7412H361.707C361.433 19.5534 361.158 18.3656 360.884 17.1778C360.701 15.9899 360.336 14.8935 359.97 13.8884C359.605 12.8833 359.057 11.8783 358.417 10.9646C357.777 10.1422 356.863 9.3199 355.767 8.6803C354.67 8.04071 353.208 7.58386 351.563 7.21838C349.826 6.85289 347.725 6.67015 345.166 6.67015H321.314V40.5686H340.231C343.155 40.5686 345.44 40.3859 347.085 39.8377C348.73 39.3808 350.009 38.6498 350.923 37.6448C351.837 36.6397 352.385 35.3605 352.751 33.8072C353.116 32.2539 353.482 30.4265 353.756 28.2336H356.132V58.1118H353.756C353.482 55.8275 353.116 54.0001 352.751 52.3554C352.385 50.7108 351.746 49.4316 350.832 48.4265C349.918 47.4214 348.638 46.5991 346.994 46.1422C345.349 45.6854 343.064 45.4113 340.14 45.4113H321.223V77.5737C321.223 78.6702 321.405 79.6752 321.862 80.5889C322.228 81.4113 322.959 82.1422 323.964 82.5991C324.969 83.0559 326.523 83.33 328.533 83.33H343.064C345.349 83.33 347.45 83.2387 349.187 83.0559C350.923 82.8732 352.568 82.5077 353.939 82.0509C355.31 81.594 356.589 80.9544 357.777 80.1321C358.965 79.3097 359.97 78.3047 361.067 77.0255C362.164 75.7463 363.26 74.2844 364.357 72.5483C365.454 70.8123 366.642 68.7108 368.012 66.3351H370.663L363.26 87.8986Z" fill="#9F1F2B"/>
<path d="M435.912 87.8986L406.852 47.6955C405.755 47.6955 404.75 47.7869 403.836 47.8783C403.013 47.9696 402.191 47.9696 401.551 47.9696C400.911 47.9696 400.272 47.9696 399.723 47.9696C399.084 47.9696 398.444 47.8783 397.713 47.7869V72.6397C397.713 78.1219 398.353 81.5026 399.541 82.6905C401.186 84.6092 403.562 85.5229 406.852 85.5229H410.233V87.8986H373.404V85.5229H376.603C380.35 85.5229 382.908 84.4265 384.371 82.1422C385.193 80.7717 385.65 77.6651 385.65 72.7311V17.1778C385.65 11.8783 385.102 8.49756 384.005 7.03563C383.091 6.12193 382.086 5.48233 380.898 5.02548C379.71 4.56863 378.248 4.29452 376.694 4.29452H373.496V2.01025H404.658C409.228 2.01025 413.249 2.193 416.63 2.46711C420.011 2.74122 422.844 3.28944 425.037 4.02041C427.231 4.75137 429.241 5.75645 431.16 6.94426C433.079 8.22345 434.724 9.68538 436.095 11.3301C437.466 13.0661 438.563 14.8935 439.385 17.0864C440.207 19.1879 440.573 21.4722 440.573 23.9392C440.573 26.5889 440.116 29.0559 439.294 31.4316C438.471 33.8072 437.1 35.9087 435.364 37.8275C433.628 39.7463 431.434 41.391 428.784 42.7615C426.134 44.1321 423.027 45.3199 419.463 46.0509L437.009 70.7209C438.928 73.462 440.756 75.6549 442.401 77.4823C444.046 79.3097 445.691 80.7717 447.427 81.8681C449.163 82.9646 450.9 83.7869 452.727 84.3351C454.555 84.8834 456.748 85.2488 459.033 85.5229V87.8986H435.912ZM426.134 25.127C426.134 22.3859 425.677 20.0103 424.855 17.726C424.032 15.4417 422.753 13.6143 421.108 12.061C419.463 10.5077 417.635 9.13716 415.35 8.22345C413.066 7.30975 410.507 6.85289 407.674 6.76152C406.577 6.76152 405.207 6.85289 403.562 7.03563C401.917 7.21838 399.998 7.49249 397.804 7.85797V43.6752H401.46C405.663 43.6752 409.319 43.2184 412.426 42.3047C415.533 41.391 418.092 40.1118 420.194 38.3757C422.204 36.7311 423.758 34.7209 424.763 32.4366C425.677 30.2438 426.134 27.7767 426.134 25.127Z" fill="#9F1F2B"/>
<path d="M578.018 67.7971C575.916 71.5433 573.631 74.8327 571.164 77.5738C568.696 80.3149 566.046 82.6905 563.122 84.5179C560.198 86.3454 556.999 87.7159 553.618 88.6296C550.236 89.5433 546.49 90.0002 542.377 90.0002C537.991 90.0002 533.878 89.452 530.131 88.3555C526.385 87.2591 522.912 85.7971 519.805 83.8784C516.698 81.9596 513.956 79.6753 511.58 76.9342C509.204 74.1931 507.194 71.2692 505.549 68.0713C503.904 64.8733 502.624 61.4012 501.802 57.655C500.979 54.0002 500.522 50.1626 500.522 46.2337C500.522 40.0205 501.619 34.0814 503.629 28.4164C505.731 22.8428 508.656 17.9088 512.494 13.7058C516.332 9.50272 520.901 6.12201 526.385 3.65501C531.776 1.188 537.808 -0.0911847 544.388 -0.0911847C547.678 -0.0911847 550.511 0.182927 552.978 0.822521C555.445 1.46211 557.547 2.19308 559.375 2.83267C561.203 3.56364 562.665 4.2946 563.853 4.84283C565.041 5.48242 565.955 5.75653 566.595 5.75653C567.691 5.75653 568.788 5.20831 569.702 4.2946C570.616 3.28953 571.347 1.8276 571.804 -0.273926H574.088L576.099 28.9647H574.088C572.809 24.5789 571.164 20.8327 569.245 17.6347C567.326 14.5281 565.132 11.9697 562.756 9.95958C560.289 7.94942 557.639 6.4875 554.714 5.57379C551.79 4.66008 548.683 4.20323 545.302 4.20323C540.915 4.20323 536.803 5.02557 533.056 6.67024C529.309 8.31491 526.11 10.8733 523.46 14.3454C520.81 17.8174 518.708 22.1119 517.155 27.4114C515.601 32.6195 514.87 38.8327 514.87 46.0509C514.87 52.1728 515.601 57.5636 517.155 62.3149C518.708 67.0662 520.901 70.9951 523.734 74.1931C526.567 77.391 529.949 79.858 533.878 81.5027C537.808 83.1474 542.194 83.9697 547.129 83.9697C549.962 83.9697 552.612 83.6956 554.989 83.1474C557.365 82.5992 559.741 81.6855 562.025 80.3149C564.31 78.9443 566.595 77.2083 568.879 74.8327C571.164 72.5484 573.54 69.6245 576.099 65.9697L578.018 67.7971Z" fill="#9F1F2B"/>
<path d="M653.412 87.8986H587.156V85.5229H590.172C590.538 85.5229 590.995 85.5229 591.634 85.4316C592.274 85.3402 592.822 85.2488 593.462 85.1575C594.102 84.9747 594.742 84.792 595.381 84.5179C596.021 84.2438 596.569 83.9696 596.935 83.6042C597.392 83.2387 597.757 82.7818 598.031 82.325C598.306 81.8681 598.58 81.2285 598.854 80.4062C599.037 79.5839 599.219 78.5788 599.311 77.391C599.402 76.2031 599.494 74.5585 599.494 72.7311V16.995C599.494 14.1625 599.311 11.9696 599.037 10.325C598.763 8.6803 598.306 7.58386 597.849 7.03563C596.295 5.29959 593.736 4.47726 590.172 4.47726H587.156V2.01025H653.412L654.417 20.7412H651.858C651.584 19.5534 651.31 18.3656 651.035 17.1778C650.853 15.9899 650.487 14.8935 650.122 13.8884C649.756 12.8833 649.208 11.8783 648.568 10.9646C647.928 10.1422 647.014 9.3199 645.918 8.6803C644.821 8.04071 643.359 7.58386 641.623 7.21838C639.886 6.85289 637.784 6.67015 635.226 6.67015H611.374V40.5686H630.291C633.215 40.5686 635.5 40.3859 637.145 39.8377C638.79 39.3808 640.069 38.6498 640.983 37.6448C641.897 36.6397 642.537 35.3605 642.811 33.8072C643.176 32.2539 643.542 30.4265 643.816 28.2336H646.192V58.1118H643.816C643.542 55.8275 643.176 54.0001 642.811 52.3554C642.445 50.7108 641.805 49.4316 640.892 48.4265C639.978 47.4214 638.698 46.5991 637.053 46.1422C635.408 45.6854 633.124 45.4113 630.199 45.4113H611.282V77.5737C611.282 78.6702 611.465 79.6752 611.922 80.5889C612.288 81.4113 613.019 82.1422 614.024 82.5991C615.029 83.0559 616.583 83.33 618.593 83.33H633.307C635.591 83.33 637.693 83.2387 639.429 83.0559C641.166 82.8732 642.811 82.5077 644.182 82.0509C645.552 81.594 646.832 80.9544 648.02 80.1321C649.208 79.3097 650.213 78.3047 651.31 77.0255C652.406 75.7463 653.503 74.2844 654.6 72.5483C655.696 70.8123 656.884 68.7108 658.255 66.3351H660.814L653.412 87.8986Z" fill="#9F1F2B"/>
<path d="M730.633 87.8986H663.83V85.5229C665.657 85.5229 667.394 85.4316 668.947 85.2488C670.501 85.0661 671.872 84.6092 672.968 83.8783C674.065 83.1473 674.887 82.1422 675.527 80.6803C676.167 79.2184 676.441 77.2996 676.441 74.924V15.1676C676.441 12.7006 676.167 10.7818 675.527 9.3199C674.887 7.85797 674.065 6.85289 672.968 6.12193C671.872 5.39096 670.501 4.93411 668.947 4.75137C667.394 4.56863 665.657 4.47726 663.83 4.47726V2.01025H701.115V4.38589C699.196 4.38589 697.46 4.47726 695.906 4.66C694.353 4.84274 693.073 5.29959 691.885 6.03056C690.788 6.76152 689.875 7.85797 689.326 9.22853C688.687 10.6905 688.412 12.6092 688.412 15.0762V71.726C688.412 74.193 688.595 76.1118 689.052 77.4823C689.509 78.9443 690.149 79.9493 691.063 80.6803C691.977 81.4113 693.073 81.8681 694.444 82.0509C695.815 82.2336 697.46 82.325 699.287 82.325H707.969C710.619 82.325 712.813 82.325 714.732 82.2336C716.651 82.1422 718.204 81.9595 719.667 81.6854C721.037 81.4113 722.317 81.0458 723.322 80.5889C724.419 80.1321 725.333 79.4925 726.246 78.6701C727.343 77.7564 728.257 76.8427 729.171 75.929C729.993 75.0153 730.816 74.0103 731.547 72.9138C732.278 71.8174 733.009 70.5382 733.74 69.1676C734.471 67.7971 735.202 66.1524 736.025 64.2336L738.218 64.5077L730.633 87.8986Z" fill="#9F1F2B"/>
<path d="M814.251 87.8986H747.448V85.5229C749.276 85.5229 751.012 85.4316 752.566 85.2488C754.119 85.0661 755.49 84.6092 756.587 83.8783C757.683 83.1473 758.506 82.1422 759.145 80.6803C759.785 79.2184 760.059 77.2996 760.059 74.924V15.1676C760.059 12.7006 759.785 10.7818 759.145 9.3199C758.506 7.85797 757.683 6.85289 756.587 6.12193C755.49 5.39096 754.119 4.93411 752.566 4.75137C751.012 4.56863 749.276 4.47726 747.448 4.47726V2.01025H784.734V4.38589C782.814 4.38589 781.078 4.47726 779.525 4.66C777.971 4.84274 776.692 5.29959 775.504 6.03056C774.407 6.76152 773.493 7.85797 772.945 9.22853C772.305 10.6905 772.031 12.6092 772.031 15.0762V71.726C772.031 74.193 772.214 76.1118 772.671 77.4823C773.128 78.9443 773.767 79.9493 774.681 80.6803C775.595 81.4113 776.692 81.8681 778.062 82.0509C779.433 82.2336 781.078 82.325 782.906 82.325H791.588C794.238 82.325 796.431 82.325 798.35 82.2336C800.269 82.1422 801.823 81.9595 803.285 81.6854C804.656 81.4113 805.935 81.0458 806.94 80.5889C808.037 80.1321 808.951 79.4925 809.865 78.6701C810.961 77.7564 811.875 76.8427 812.789 75.929C813.612 75.0153 814.434 74.0103 815.165 72.9138C815.896 71.8174 816.627 70.5382 817.358 69.1676C818.09 67.7971 818.821 66.1524 819.643 64.2336L821.836 64.5077L814.251 87.8986Z" fill="#9F1F2B"/>
</g>
<defs>
<clipPath id="clip0_63_145">
<rect width="888" height="90" fill="white"/>
</clipPath>
</defs>
</svg>
