<svg width="1093" height="123" viewBox="0 0 1093 123" fill="none" xmlns="http://www.w3.org/2000/svg">
<g clip-path="url(#clip0_131_266)">
<path d="M105.484 88.0359C105.484 90.1587 105.234 92.2816 104.735 94.4044C104.235 96.5273 103.486 98.6501 102.488 100.773C101.489 102.896 100.241 104.769 98.7427 106.767C97.2447 108.64 95.4971 110.263 93.6246 111.887C91.7521 113.385 89.6299 114.634 87.3829 115.633C85.0111 116.757 82.2648 117.631 79.2688 118.255C76.148 119.004 72.6527 119.504 68.7829 119.754C64.7882 120.128 60.4191 120.253 55.3009 120.253H0V117.006H4.24431C9.11279 117.006 12.6081 115.508 14.8551 112.386C15.4793 111.387 15.8538 109.889 16.2283 107.766C16.6028 105.643 16.7276 102.896 16.7276 99.5242V23.4765C16.7276 16.2339 15.9786 11.6135 14.3558 9.61558C13.2323 8.36685 11.8591 7.49274 10.2363 6.86837C8.48863 6.24401 6.61614 5.86939 4.24431 5.86939H0V2.74756H50.6821C57.5479 2.74756 63.6647 3.24705 68.7829 4.12116C73.901 4.99527 78.2702 6.24401 81.8903 7.86736C85.5105 9.36583 88.5064 11.2389 90.8783 13.3618C93.2501 15.4846 95.1226 17.6075 96.4957 19.98C97.8689 22.3526 98.7427 24.7252 99.2421 27.0978C99.7414 29.4704 99.9911 31.9679 99.9911 34.3404C99.9911 37.2125 99.4917 39.9597 98.6179 42.5821C97.7441 45.2044 96.3709 47.7019 94.6233 49.9496C92.8756 52.1973 90.6286 54.1953 88.0071 55.9435C85.3856 57.6917 82.2648 59.1902 78.6447 60.1892C83.2635 61.0633 87.2581 62.4369 90.6286 64.1851C93.9991 65.9333 96.7454 68.0562 98.9924 70.5536C101.239 72.9262 102.862 75.6734 103.861 78.6704C104.86 81.5425 105.484 84.6643 105.484 88.0359ZM81.8903 33.3415C81.8903 29.9699 81.2661 26.8481 79.893 23.8511C78.5198 20.8542 76.5225 18.2318 73.7762 15.9841C71.0299 13.7364 67.6594 11.9882 63.5399 10.6146C59.4204 9.24096 54.6768 8.61659 49.0593 8.61659C46.0633 8.61659 43.317 8.74147 40.6955 8.99121C38.074 9.24096 35.7022 9.74045 33.3304 10.3648V55.5689C35.5773 56.0684 38.074 56.443 40.6955 56.5679C43.317 56.6927 46.4378 56.8176 49.8083 56.8176C55.5506 56.8176 60.4191 56.3181 64.4137 55.1943C68.4084 54.1953 71.7789 52.5719 74.2755 50.574C76.897 48.576 78.7695 46.2034 79.893 43.2064C81.2661 40.3344 81.8903 36.9628 81.8903 33.3415ZM85.3856 89.4095C85.3856 85.4135 84.6366 81.9171 83.0138 78.6704C81.391 75.4237 79.144 72.5516 76.0232 70.179C72.9023 67.8064 69.1574 65.9333 64.5386 64.6846C59.9197 63.311 54.6768 62.6866 48.8096 62.6866C45.0646 62.6866 42.0686 62.6866 39.572 62.8115C37.0753 62.9364 35.078 63.1861 33.4552 63.4359V111.637C36.8257 112.386 40.1962 113.011 43.4418 113.385C46.6875 113.76 50.0579 114.009 53.4284 114.009C58.6714 114.009 63.1654 113.385 67.16 112.136C71.1547 110.888 74.5252 109.264 77.1467 107.017C79.893 104.769 81.8903 102.271 83.2635 99.2745C84.7615 96.2775 85.3856 93.0308 85.3856 89.4095Z" fill="#9F1F2B"/>
<path d="M118.342 120.128V116.882H122.586C124.958 116.882 127.08 116.507 128.703 115.883C130.325 115.258 131.823 114.134 132.947 112.636C134.32 111.013 135.069 106.642 135.069 99.2745V23.4765C135.069 21.4785 135.069 19.7303 135.069 18.3567C135.069 16.9831 134.944 15.7344 134.819 14.7354C134.695 13.7364 134.57 12.8623 134.32 12.2379C134.07 11.6135 133.696 10.9892 133.197 10.3648C132.073 8.99121 130.575 7.86736 128.578 7.11812C126.581 6.36888 124.583 5.99426 122.586 5.99426H118.342V2.74756H168.524V5.86939H164.28C159.661 5.86939 156.166 7.24299 153.919 10.1151C153.295 11.1141 152.795 12.7374 152.421 14.8602C152.046 17.108 151.797 19.98 151.797 23.4765V99.2745C151.797 103.146 151.922 106.018 152.296 108.14C152.671 110.263 153.17 111.762 153.794 112.761C154.044 113.26 154.668 113.76 155.292 114.259C155.916 114.759 156.915 115.133 157.914 115.508C158.912 115.883 160.036 116.257 161.034 116.507C162.033 116.757 163.157 116.882 164.28 116.882H168.524V120.128H118.342Z" fill="#9F1F2B"/>
<path d="M277.129 30.3442C276.879 28.2213 276.629 26.3482 276.255 24.8497C275.88 23.3513 275.506 21.9777 275.007 20.8538C274.507 19.7299 274.008 18.731 273.509 17.9817C273.009 17.2325 272.385 16.4832 271.636 15.734C269.764 13.736 267.641 12.3624 265.145 11.3634C262.648 10.3645 259.652 9.98984 255.657 9.98984H239.055V99.6487C239.055 103.395 239.304 106.267 239.679 108.515C240.053 110.762 240.678 112.386 241.427 113.26C243.424 115.632 246.794 116.756 251.413 116.756H255.533V120.003H205.6V116.756H209.844C212.341 116.756 214.463 116.382 216.21 115.757C217.833 115.008 219.331 113.884 220.455 112.261C221.079 111.387 221.453 109.888 221.828 107.765C222.077 105.768 222.327 103.02 222.327 99.5238V9.98984H208.346C205.974 9.98984 203.977 9.98984 202.354 10.1147C200.731 10.2396 199.358 10.3645 198.11 10.7391C196.986 10.9888 195.863 11.3634 194.989 11.8629C194.115 12.3624 193.241 12.9868 192.367 13.736C188.123 16.8579 185.751 22.3523 185.002 30.3442H181.132L182.381 2.87207H279.875L280.874 30.3442H277.129Z" fill="#9F1F2B"/>
<path d="M389.478 30.3442C389.229 28.2213 388.979 26.3482 388.604 24.8497C388.23 23.3513 387.855 21.9777 387.356 20.8538C386.857 19.7299 386.358 18.731 385.858 17.9817C385.359 17.2325 384.735 16.4832 383.986 15.734C382.113 13.736 379.991 12.3624 377.494 11.3634C374.998 10.3645 371.877 9.98984 368.007 9.98984H351.404V99.6487C351.404 103.395 351.654 106.267 352.028 108.515C352.528 110.762 353.027 112.386 353.776 113.26C355.773 115.632 359.144 116.756 363.763 116.756H367.882V120.003H317.949V116.756H322.193C324.69 116.756 326.812 116.382 328.56 115.757C330.183 115.008 331.681 113.884 332.804 112.261C333.428 111.387 333.803 109.888 334.177 107.765C334.552 105.643 334.677 103.02 334.677 99.5238V9.98984H320.695C318.324 9.98984 316.326 9.98984 314.704 10.1147C313.081 10.2396 311.708 10.3645 310.459 10.7391C309.336 10.9888 308.212 11.3634 307.338 11.8629C306.465 12.3624 305.591 12.9868 304.717 13.736C300.473 16.8579 298.101 22.3523 297.352 30.3442H293.482L294.73 2.87207H392.225L393.223 30.3442H389.478Z" fill="#9F1F2B"/>
<path d="M496.21 120.128H405.707V116.882H409.826C410.325 116.882 410.95 116.882 411.823 116.757C412.697 116.632 413.446 116.507 414.32 116.382C415.194 116.132 416.068 115.883 416.941 115.508C417.815 115.133 418.564 114.759 419.064 114.259C419.688 113.76 420.187 113.135 420.562 112.511C420.936 111.887 421.311 111.013 421.685 109.889C421.935 108.765 422.184 107.391 422.309 105.768C422.434 104.145 422.559 101.897 422.559 99.3993V23.2267C422.559 19.3557 422.309 16.3587 421.935 14.111C421.56 11.8633 420.936 10.3648 420.312 9.61558C418.19 7.24299 414.694 6.11913 409.826 6.11913H405.707V2.74756H496.21L497.583 28.3465H494.088C493.714 26.7232 493.339 25.0998 492.965 23.4765C492.715 21.8531 492.216 20.3547 491.716 18.9811C491.217 17.6075 490.468 16.2339 489.594 14.9851C488.72 13.8613 487.472 12.7374 485.974 11.8633C484.476 10.9892 482.479 10.3648 480.232 9.86532C477.86 9.36583 474.989 9.11609 471.493 9.11609H438.912V55.444H464.752C468.747 55.444 471.868 55.1943 474.115 54.445C476.362 53.8206 478.11 52.8217 479.358 51.4481C480.606 50.0745 481.355 48.3262 481.855 46.2034C482.354 44.0806 482.853 41.5831 483.228 38.5861H486.473V79.4196H483.228C482.853 76.2978 482.354 73.8003 481.855 71.5526C481.355 69.3049 480.481 67.5567 479.233 66.1831C477.985 64.8095 476.237 63.6856 473.99 63.0613C471.743 62.4369 468.622 62.0623 464.628 62.0623H438.787V106.018C438.787 107.516 439.037 108.89 439.661 110.138C440.16 111.262 441.159 112.261 442.532 112.886C443.905 113.51 446.028 113.885 448.774 113.885H468.622C471.743 113.885 474.614 113.76 476.986 113.51C479.358 113.26 481.605 112.761 483.477 112.136C485.35 111.512 487.098 110.638 488.72 109.514C490.343 108.39 491.716 107.017 493.214 105.268C494.712 103.52 496.21 101.522 497.708 99.1496C499.206 96.777 500.829 93.9049 502.702 90.6582H506.322L496.21 120.128Z" fill="#9F1F2B"/>
<path d="M595.453 120.128L555.756 65.1841C554.258 65.1841 552.885 65.309 551.636 65.4339C550.513 65.5587 549.389 65.5587 548.515 65.5587C547.642 65.5587 546.768 65.5587 546.019 65.5587C545.145 65.5587 544.271 65.4338 543.272 65.309V99.2745C543.272 106.767 544.146 111.387 545.769 113.011C548.016 115.633 551.262 116.882 555.756 116.882H560.374V120.128H510.067V116.882H514.436C519.554 116.882 523.05 115.383 525.047 112.261C526.17 110.388 526.794 106.142 526.794 99.3993V23.4765C526.794 16.2339 526.045 11.6135 524.548 9.61558C523.299 8.36685 521.926 7.49274 520.303 6.86837C518.68 6.24401 516.683 5.86939 514.561 5.86939H510.192V2.74756H552.76C559.001 2.74756 564.494 2.9973 569.113 3.37192C573.732 3.74654 577.601 4.49578 580.597 5.49477C583.593 6.49375 586.34 7.86735 588.961 9.4907C591.583 11.2389 593.83 13.2369 595.702 15.4846C597.575 17.8572 599.073 20.3547 600.196 23.3516C601.32 26.2237 601.819 29.3455 601.819 32.7171C601.819 36.3384 601.195 39.71 600.071 42.9567C598.948 46.2034 597.075 49.0755 594.704 51.6978C592.332 54.3201 589.336 56.5679 585.716 58.441C582.095 60.3141 577.851 61.9374 572.983 62.9364L596.951 96.6521C599.572 100.398 602.069 103.395 604.316 105.893C606.563 108.39 608.81 110.388 611.181 111.887C613.553 113.385 615.925 114.509 618.422 115.258C620.918 116.007 623.914 116.507 627.035 116.882V120.128H595.453ZM582.095 34.3404C582.095 30.5943 581.471 27.3476 580.348 24.2257C579.224 21.1039 577.477 18.6064 575.23 16.4836C572.983 14.3608 570.486 12.4877 567.365 11.2389C564.244 9.9902 560.749 9.36583 556.879 9.24096C555.381 9.24096 553.509 9.36583 551.262 9.61558C549.015 9.86532 546.393 10.2399 543.397 10.7394V59.6897H548.391C554.133 59.6897 559.126 59.0653 563.37 57.8166C567.615 56.5679 571.11 54.8196 573.981 52.447C576.728 50.1993 578.85 47.4521 580.223 44.3303C581.471 41.3333 582.095 37.9618 582.095 34.3404Z" fill="#9F1F2B"/>
<path d="M789.567 92.6559C786.696 97.7757 783.575 102.271 780.205 106.017C776.834 109.764 773.214 113.01 769.219 115.508C765.225 118.005 760.856 119.878 756.237 121.127C751.618 122.376 746.5 123 740.882 123C734.89 123 729.273 122.251 724.155 120.752C719.037 119.254 714.293 117.256 710.049 114.634C705.804 112.011 702.059 108.889 698.814 105.143C695.568 101.397 692.822 97.4011 690.575 93.0306C688.328 88.66 686.58 83.9148 685.457 78.795C684.333 73.8001 683.709 68.5554 683.709 63.1859C683.709 54.6945 685.207 46.5778 687.953 38.8356C690.824 31.2184 694.819 24.4752 700.062 18.7311C705.305 12.9869 711.547 8.3666 719.037 4.99503C726.402 1.62346 734.641 -0.124766 743.629 -0.124766C748.123 -0.124766 751.992 0.249854 755.363 1.12397C758.733 1.99808 761.605 2.99706 764.101 3.87117C766.598 4.87016 768.595 5.86914 770.218 6.61838C771.841 7.49249 773.089 7.86711 773.963 7.86711C775.461 7.86711 776.959 7.11787 778.207 5.86914C779.456 4.49554 780.454 2.49757 781.079 -0.374512H784.199L786.946 39.5849H784.199C782.452 33.591 780.205 28.4712 777.583 24.1006C774.962 19.8549 771.966 16.3585 768.72 13.6113C765.35 10.8641 761.729 8.8661 757.735 7.61737C753.74 6.36864 749.496 5.74427 744.877 5.74427C738.885 5.74427 733.268 6.86813 728.149 9.11584C723.031 11.3636 718.662 14.86 715.042 19.6052C711.422 24.3504 708.551 30.2194 706.429 37.462C704.306 44.5798 703.308 53.0712 703.308 62.9361C703.308 71.3026 704.306 78.6702 706.429 85.1636C708.551 91.657 711.547 97.0265 715.416 101.397C719.286 105.768 723.905 109.139 729.273 111.387C734.641 113.635 740.633 114.758 747.374 114.758C751.244 114.758 754.864 114.384 758.109 113.635C761.355 112.885 764.601 111.637 767.721 109.764C770.842 107.89 773.963 105.518 777.084 102.271C780.205 99.1493 783.45 95.1534 786.946 90.1585L789.567 92.6559Z" fill="#9F1F2B"/>
<path d="M892.555 120.128H802.051V116.882H806.17C806.67 116.882 807.294 116.882 808.168 116.757C809.041 116.632 809.79 116.507 810.664 116.382C811.538 116.132 812.412 115.883 813.286 115.508C814.16 115.133 814.909 114.759 815.408 114.259C816.032 113.76 816.531 113.135 816.906 112.511C817.28 111.887 817.655 111.013 818.029 109.889C818.279 108.765 818.529 107.391 818.654 105.768C818.778 104.145 818.903 101.897 818.903 99.3993V23.2267C818.903 19.3557 818.654 16.3587 818.279 14.111C817.905 11.8633 817.28 10.3648 816.656 9.61558C814.534 7.24299 811.039 6.11913 806.17 6.11913H802.051V2.74756H892.555L893.928 28.3465H890.432C890.058 26.7232 889.683 25.0998 889.309 23.4765C889.059 21.8531 888.56 20.3547 888.061 18.9811C887.561 17.6075 886.812 16.2339 885.938 14.9851C885.065 13.8613 883.816 12.7374 882.318 11.8633C880.82 10.9892 878.823 10.3648 876.451 9.86532C874.079 9.36583 871.208 9.11609 867.713 9.11609H835.131V55.444H860.972C864.967 55.444 868.087 55.1943 870.334 54.445C872.581 53.8206 874.329 52.8217 875.577 51.4481C876.826 50.0745 877.699 48.3262 878.074 46.2034C878.573 44.0806 879.073 41.5831 879.447 38.5861H882.693V79.4196H879.447C879.073 76.2978 878.573 73.8003 878.074 71.5526C877.575 69.3049 876.701 67.5567 875.452 66.1831C874.204 64.8095 872.456 63.6856 870.209 63.0613C867.962 62.4369 864.842 62.0623 860.847 62.0623H835.007V106.018C835.007 107.516 835.256 108.89 835.88 110.138C836.38 111.262 837.378 112.261 838.752 112.886C840.125 113.51 842.247 113.885 844.993 113.885H865.091C868.212 113.885 871.083 113.76 873.455 113.51C875.827 113.26 878.074 112.761 879.946 112.136C881.819 111.512 883.567 110.638 885.189 109.514C886.812 108.39 888.185 107.017 889.683 105.268C891.181 103.52 892.679 101.522 894.177 99.1496C895.675 96.777 897.298 93.9049 899.171 90.6582H902.666L892.555 120.128Z" fill="#9F1F2B"/>
<path d="M998.038 120.128H906.785V116.882C909.282 116.882 911.654 116.757 913.776 116.507C915.898 116.257 917.77 115.633 919.268 114.634C920.766 113.635 921.89 112.261 922.764 110.263C923.638 108.265 924.012 105.643 924.012 102.396V20.7293C924.012 17.3577 923.638 14.7354 922.764 12.7374C921.89 10.7394 920.766 9.36583 919.268 8.36685C917.77 7.36786 915.898 6.7435 913.776 6.49375C911.654 6.244 909.282 6.11913 906.785 6.11913V2.74756H957.717V5.99426C955.095 5.99426 952.724 6.11913 950.601 6.36888C948.479 6.61862 946.732 7.24299 945.109 8.24197C943.611 9.24096 942.362 10.7394 941.613 12.6125C940.74 14.6105 940.365 17.2328 940.365 20.6044V98.0257C940.365 101.397 940.615 104.02 941.239 105.893C941.863 107.891 942.737 109.264 943.985 110.263C945.234 111.262 946.732 111.887 948.604 112.136C950.477 112.386 952.724 112.511 955.22 112.511H967.079C970.7 112.511 973.695 112.511 976.317 112.386C978.938 112.261 981.061 112.012 983.058 111.637C984.93 111.262 986.678 110.763 988.051 110.138C989.549 109.514 990.798 108.64 992.046 107.516C993.544 106.267 994.792 105.019 996.041 103.77C997.164 102.521 998.288 101.148 999.286 99.6491C1000.28 98.1506 1001.28 96.4024 1002.28 94.5293C1003.28 92.6562 1004.28 90.4085 1005.4 87.7861L1008.4 88.1608L998.038 120.128Z" fill="#9F1F2B"/>
<path d="M1112.26 120.128H1021.01V116.882C1023.5 116.882 1025.88 116.757 1028 116.507C1030.12 116.257 1031.99 115.633 1033.49 114.634C1034.99 113.635 1036.11 112.261 1036.99 110.263C1037.86 108.265 1038.23 105.643 1038.23 102.396V20.7293C1038.23 17.3577 1037.86 14.7354 1036.99 12.7374C1036.11 10.7394 1034.99 9.36583 1033.49 8.36685C1031.99 7.36786 1030.12 6.7435 1028 6.49375C1025.88 6.244 1023.5 6.11913 1021.01 6.11913V2.74756H1071.94V5.99426C1069.32 5.99426 1066.95 6.11913 1064.82 6.36888C1062.7 6.61862 1060.95 7.24299 1059.33 8.24197C1057.83 9.24096 1056.58 10.7394 1055.84 12.6125C1054.96 14.6105 1054.59 17.2328 1054.59 20.6044V98.0257C1054.59 101.397 1054.84 104.02 1055.46 105.893C1056.09 107.891 1056.96 109.264 1058.21 110.263C1059.46 111.262 1060.95 111.887 1062.83 112.136C1064.7 112.386 1066.95 112.511 1069.44 112.511H1081.3C1084.92 112.511 1087.92 112.511 1090.54 112.386C1093.16 112.261 1095.28 112.012 1097.28 111.637C1099.15 111.262 1100.9 110.763 1102.27 110.138C1103.77 109.514 1105.02 108.64 1106.27 107.516C1107.77 106.267 1109.01 105.019 1110.26 103.77C1111.39 102.521 1112.51 101.148 1113.51 99.6491C1114.51 98.1506 1115.51 96.4024 1116.5 94.5293C1117.5 92.6562 1118.5 90.4085 1119.63 87.7861L1122.62 88.1608L1112.26 120.128Z" fill="#9F1F2B"/>
</g>
<defs>
<clipPath id="clip0_131_266">
<rect width="1213" height="123" fill="white"/>
</clipPath>
</defs>
</svg>
