<svg width="600" height="73" viewBox="0 0 600 73" fill="none" xmlns="http://www.w3.org/2000/svg">
<g clip-path="url(#clip0_131_280)">
<path d="M46.0383 18.0092C45.8905 16.7493 45.7428 15.6376 45.5211 14.7482C45.2994 13.8589 45.0777 13.0437 44.7822 12.3767C44.4866 11.7097 44.1911 11.1168 43.8955 10.6721C43.5999 10.2274 43.2305 9.78276 42.7871 9.33809C41.6788 8.15231 40.4226 7.33708 38.9448 6.74418C37.467 6.15129 35.6936 5.92896 33.3291 5.92896H23.5015V59.1411C23.5015 61.3645 23.6493 63.0691 23.871 64.4031C24.0927 65.7371 24.4621 66.7005 24.9055 67.2193C26.0877 68.6274 28.0828 69.2944 30.8168 69.2944H33.2552V71.2213H3.69872V69.2944H6.21102C7.68884 69.2944 8.94499 69.0721 9.97946 68.7015C10.94 68.2569 11.8267 67.5899 12.4918 66.6264C12.8612 66.1076 13.0829 65.2183 13.3046 63.9584C13.4523 62.7726 13.6001 61.1421 13.6001 59.067V5.92896H5.32432C3.92039 5.92896 2.73814 5.92896 1.77755 6.00307C0.81697 6.07718 0.00416051 6.15129 -0.734751 6.37363C-1.39977 6.52185 -2.06479 6.74418 -2.58203 7.04063C-3.09927 7.33708 -3.6165 7.70764 -4.13374 8.15231C-6.64603 10.0051 -8.04997 13.266 -8.49332 18.0092H-10.7839L-10.045 1.70459H47.6639L48.2551 18.0092H46.0383Z" fill="#BAA99F"/>
<path d="M112.54 18.0092C112.392 16.7493 112.245 15.6376 112.023 14.7482C111.801 13.8589 111.58 13.0437 111.284 12.3767C110.989 11.7097 110.693 11.1168 110.397 10.6721C110.102 10.2274 109.732 9.78276 109.289 9.33809C108.181 8.15231 106.925 7.33708 105.447 6.74418C103.969 6.15129 102.122 5.92896 99.831 5.92896H90.0035V59.1411C90.0035 61.3645 90.1513 63.0691 90.3729 64.4031C90.6685 65.7371 90.9641 66.7005 91.4074 67.2193C92.5897 68.6274 94.5847 69.2944 97.3187 69.2944H99.7571V71.2213H70.2007V69.2944H72.713C74.1908 69.2944 75.4469 69.0721 76.4814 68.7015C77.442 68.2569 78.3287 67.5899 78.9937 66.6264C79.3632 66.1076 79.5849 65.2183 79.8065 63.9584C80.0282 62.6985 80.1021 61.1421 80.1021 59.067V5.92896H71.8263C70.4223 5.92896 69.2401 5.92896 68.2795 6.00307C67.3189 6.07718 66.5061 6.15129 65.7672 6.37363C65.1022 6.52185 64.4372 6.74418 63.9199 7.04063C63.4027 7.33708 62.8855 7.70764 62.3682 8.15231C59.8559 10.0051 58.452 13.266 58.0086 18.0092H55.718L56.4569 1.70459H114.166L114.757 18.0092H112.54Z" fill="#BAA99F"/>
<path d="M175.717 71.2958H122.146V69.3689H124.584C124.88 69.3689 125.249 69.3689 125.767 69.2948C126.284 69.2207 126.727 69.1466 127.244 69.0725C127.762 68.9243 128.279 68.776 128.796 68.5537C129.313 68.3314 129.757 68.109 130.052 67.8126C130.422 67.5161 130.717 67.1456 130.939 66.775C131.161 66.4045 131.382 65.8857 131.604 65.2187C131.752 64.5517 131.9 63.7364 131.974 62.773C132.047 61.8095 132.121 60.4755 132.121 58.9933V13.7852C132.121 11.4877 131.974 9.70903 131.752 8.37502C131.53 7.04101 131.161 6.15167 130.791 5.707C129.535 4.29888 127.466 3.63187 124.584 3.63187H122.146V1.63086H175.717L176.53 16.8238H174.461C174.239 15.8603 174.018 14.8968 173.796 13.9334C173.648 12.9699 173.353 12.0806 173.057 11.2654C172.761 10.4501 172.318 9.63492 171.801 8.8938C171.284 8.2268 170.545 7.55979 169.658 7.04101C168.771 6.52223 167.589 6.15167 166.259 5.85522C164.855 5.55878 163.156 5.41055 161.087 5.41055H141.801V32.906H157.096C159.461 32.906 161.308 32.7578 162.638 32.3131C163.968 31.9425 165.003 31.3496 165.742 30.5344C166.481 29.7192 166.924 28.6816 167.22 27.4217C167.515 26.1618 167.811 24.6796 168.032 22.9009H169.954V47.1354H168.032C167.811 45.2826 167.515 43.8004 167.22 42.4664C166.924 41.1324 166.407 40.0948 165.668 39.2796C164.929 38.4644 163.894 37.7974 162.564 37.4268C161.234 37.0562 159.387 36.8339 157.023 36.8339H141.727V62.9212C141.727 63.8106 141.875 64.6258 142.244 65.3669C142.54 66.0339 143.131 66.6268 143.944 66.9974C144.757 67.3679 146.013 67.5902 147.638 67.5902H159.387C161.234 67.5902 162.934 67.5161 164.338 67.3679C165.742 67.2197 167.072 66.9232 168.18 66.5527C169.289 66.1821 170.323 65.6633 171.284 64.9963C172.244 64.3293 173.057 63.5141 173.944 62.4765C174.83 61.439 175.717 60.2532 176.604 58.8451C177.49 57.437 178.451 55.7324 179.559 53.8055H181.702L175.717 71.2958Z" fill="#BAA99F"/>
<path d="M234.461 71.2958L210.963 38.6867C210.077 38.6867 209.264 38.7608 208.525 38.8349C207.86 38.909 207.195 38.909 206.678 38.909C206.16 38.909 205.643 38.909 205.2 38.909C204.683 38.909 204.165 38.8349 203.574 38.7608V58.9192C203.574 63.3659 204.091 66.108 205.052 67.0715C206.382 68.6278 208.303 69.3689 210.963 69.3689H213.697V71.2958H183.919V69.3689H186.505C189.535 69.3689 191.604 68.4796 192.786 66.6268C193.451 65.5151 193.821 62.9953 193.821 58.9933V13.9334C193.821 9.63492 193.377 6.89279 192.491 5.707C191.752 4.96588 190.939 4.4471 189.978 4.07654C189.018 3.70599 187.835 3.48365 186.579 3.48365H183.993V1.63086H209.19C212.884 1.63086 216.136 1.77908 218.87 2.00142C221.604 2.22375 223.894 2.66842 225.668 3.26132C227.441 3.85421 229.067 4.66944 230.618 5.63289C232.17 6.67045 233.5 7.85624 234.608 9.19025C235.717 10.5984 236.604 12.0806 237.269 13.8593C237.934 15.5639 238.229 17.4166 238.229 19.4177C238.229 21.5669 237.86 23.5679 237.195 25.4948C236.53 27.4217 235.421 29.1263 234.017 30.6826C232.613 32.239 230.84 33.573 228.697 34.6847C226.554 35.7963 224.042 36.7598 221.16 37.3527L235.347 57.3628C236.899 59.5862 238.377 61.3649 239.707 62.8471C241.037 64.3293 242.367 65.5151 243.771 66.4045C245.175 67.2938 246.579 67.9608 248.057 68.4055C249.534 68.8501 251.308 69.1466 253.155 69.3689V71.2958H234.461ZM226.554 20.3811C226.554 18.1578 226.185 16.2309 225.52 14.3781C224.855 12.5253 223.82 11.043 222.49 9.78314C221.16 8.52324 219.682 7.41157 217.835 6.67045C215.988 5.92934 213.919 5.55878 211.628 5.48467C210.742 5.48467 209.633 5.55878 208.303 5.707C206.973 5.85522 205.421 6.07756 203.648 6.37401V35.4258H206.604C210.003 35.4258 212.958 35.0552 215.471 34.3141C217.983 33.573 220.052 32.5354 221.751 31.1273C223.377 29.7933 224.633 28.1628 225.446 26.31C226.185 24.5314 226.554 22.5303 226.554 20.3811Z" fill="#BAA99F"/>
<path d="M349.361 54.991C347.662 58.0296 345.815 60.6976 343.819 62.921C341.824 65.1443 339.682 67.0712 337.317 68.5535C334.953 70.0357 332.366 71.1474 329.632 71.8885C326.898 72.6296 323.869 73.0002 320.544 73.0002C316.997 73.0002 313.672 72.5555 310.642 71.6662C307.613 70.7768 304.805 69.591 302.293 68.0347C299.78 66.4783 297.564 64.6255 295.642 62.4022C293.721 60.1788 292.096 57.8073 290.766 55.2134C289.436 52.6195 288.401 49.8032 287.736 46.7646C287.071 43.8002 286.702 40.6875 286.702 37.5007C286.702 32.4611 287.588 27.6438 289.214 23.0489C290.913 18.5281 293.278 14.5261 296.381 11.1169C299.485 7.70778 303.179 4.96565 307.613 2.96463C311.972 0.963619 316.849 -0.0739446 322.169 -0.0739446C324.829 -0.0739446 327.12 0.14839 329.115 0.667172C331.11 1.18595 332.81 1.77885 334.288 2.29763C335.765 2.89052 336.948 3.48342 337.908 3.92809C338.869 4.44687 339.608 4.6692 340.125 4.6692C341.012 4.6692 341.898 4.22453 342.637 3.48342C343.376 2.66819 343.967 1.4824 344.337 -0.222168H346.184L347.81 23.4936H346.184C345.15 19.9362 343.82 16.8976 342.268 14.3037C340.716 11.7839 338.943 9.7088 337.021 8.07834C335.026 6.44788 332.884 5.2621 330.519 4.52098C328.155 3.77986 325.642 3.4093 322.908 3.4093C319.362 3.4093 316.036 4.07631 313.007 5.41032C309.977 6.74433 307.391 8.81946 305.248 11.6357C303.105 14.4519 301.406 17.9352 300.15 22.2337C298.894 26.458 298.303 31.4976 298.303 37.3525C298.303 42.3179 298.894 46.6905 300.15 50.5443C301.406 54.3981 303.179 57.5849 305.47 60.1788C307.761 62.7728 310.495 64.7738 313.672 66.1078C316.849 67.4418 320.396 68.1088 324.386 68.1088C326.677 68.1088 328.82 67.8865 330.741 67.4418C332.662 66.9971 334.583 66.256 336.43 65.1443C338.278 64.0327 340.125 62.6245 341.972 60.6976C343.819 58.8448 345.741 56.4733 347.81 53.5088L349.361 54.991Z" fill="#BAA99F"/>
<path d="M410.322 71.2958H356.75V69.3689H359.189C359.484 69.3689 359.854 69.3689 360.371 69.2948C360.888 69.2207 361.332 69.1466 361.849 69.0725C362.366 68.9243 362.883 68.776 363.401 68.5537C363.918 68.3314 364.361 68.109 364.657 67.8126C365.026 67.5161 365.322 67.1456 365.544 66.775C365.765 66.4045 365.987 65.8857 366.209 65.2187C366.356 64.5517 366.504 63.7364 366.578 62.773C366.652 61.8095 366.726 60.4755 366.726 58.9933V13.7852C366.726 11.4877 366.578 9.70903 366.356 8.37502C366.135 7.04101 365.765 6.15167 365.396 5.707C364.14 4.29888 362.071 3.63187 359.189 3.63187H356.75V1.63086H410.322L411.134 16.8238H409.065C408.844 15.8603 408.622 14.8968 408.4 13.9334C408.253 12.9699 407.957 12.0806 407.661 11.2654C407.366 10.4501 406.923 9.63492 406.405 8.8938C405.888 8.2268 405.149 7.55979 404.262 7.04101C403.376 6.52223 402.194 6.15167 400.79 5.85522C399.386 5.55878 397.686 5.41055 395.617 5.41055H376.332V32.906H391.627C393.992 32.906 395.839 32.7578 397.169 32.3131C398.499 31.9425 399.533 31.3496 400.272 30.5344C401.011 29.7192 401.529 28.6816 401.75 27.4217C402.046 26.1618 402.341 24.6796 402.563 22.9009H404.484V47.1354H402.563C402.341 45.2826 402.046 43.8004 401.75 42.4664C401.455 41.1324 400.937 40.0948 400.198 39.2796C399.46 38.4644 398.425 37.7974 397.095 37.4268C395.765 37.0562 393.918 36.8339 391.553 36.8339H376.258V62.9212C376.258 63.8106 376.406 64.6258 376.775 65.3669C377.071 66.0339 377.662 66.6268 378.474 66.9974C379.287 67.3679 380.543 67.5902 382.169 67.5902H394.066C395.913 67.5902 397.612 67.5161 399.016 67.3679C400.42 67.2197 401.75 66.9232 402.859 66.5527C403.967 66.1821 405.001 65.6633 405.962 64.9963C406.923 64.3293 407.735 63.5141 408.622 62.4765C409.509 61.439 410.395 60.2532 411.282 58.8451C412.169 57.437 413.129 55.7324 414.238 53.8055H416.307L410.322 71.2958Z" fill="#BAA99F"/>
<path d="M472.76 71.2958H418.745V69.3689C420.223 69.3689 421.627 69.2948 422.883 69.1466C424.139 68.9984 425.248 68.6278 426.134 68.0349C427.021 67.442 427.686 66.6268 428.203 65.441C428.72 64.2552 428.942 62.6989 428.942 60.772V12.3029C428.942 10.3019 428.72 8.74558 428.203 7.55979C427.686 6.37401 427.021 5.55878 426.134 4.96588C425.248 4.37299 424.139 4.00243 422.883 3.85421C421.627 3.70599 420.223 3.63187 418.745 3.63187V1.63086H448.893V3.55776C447.341 3.55776 445.937 3.63187 444.681 3.7801C443.425 3.92832 442.39 4.29888 441.43 4.89177C440.543 5.48467 439.804 6.37401 439.361 7.48568C438.843 8.67147 438.622 10.2278 438.622 12.2288V58.1781C438.622 60.1791 438.77 61.7354 439.139 62.8471C439.509 64.0329 440.026 64.8481 440.765 65.441C441.504 66.0339 442.39 66.4045 443.499 66.5527C444.607 66.7009 445.937 66.775 447.415 66.775H454.435C456.577 66.775 458.351 66.775 459.902 66.7009C461.454 66.6268 462.71 66.4786 463.893 66.2562C465.001 66.0339 466.035 65.7375 466.848 65.3669C467.735 64.9963 468.474 64.4776 469.213 63.8106C470.099 63.0694 470.838 62.3283 471.577 61.5872C472.242 60.8461 472.907 60.0309 473.498 59.1415C474.09 58.2522 474.681 57.2146 475.272 56.1029C475.863 54.9913 476.454 53.6573 477.119 52.1009L478.892 52.3232L472.76 71.2958Z" fill="#BAA99F"/>
<path d="M540.37 71.2958H486.355V69.3689C487.833 69.3689 489.237 69.2948 490.493 69.1466C491.75 68.9984 492.858 68.6278 493.745 68.0349C494.631 67.442 495.296 66.6268 495.814 65.441C496.331 64.2552 496.552 62.6989 496.552 60.772V12.3029C496.552 10.3019 496.331 8.74558 495.814 7.55979C495.296 6.37401 494.631 5.55878 493.745 4.96588C492.858 4.37299 491.75 4.00243 490.493 3.85421C489.237 3.70599 487.833 3.63187 486.355 3.63187V1.63086H516.503V3.55776C514.951 3.55776 513.547 3.63187 512.291 3.7801C511.035 3.92832 510.001 4.29888 509.04 4.89177C508.153 5.48467 507.414 6.37401 506.971 7.48568C506.454 8.67147 506.232 10.2278 506.232 12.2288V58.1781C506.232 60.1791 506.38 61.7354 506.749 62.8471C507.119 64.0329 507.636 64.8481 508.375 65.441C509.114 66.0339 510.001 66.4045 511.109 66.5527C512.217 66.7009 513.547 66.775 515.025 66.775H522.045C524.188 66.775 525.961 66.775 527.513 66.7009C529.065 66.6268 530.321 66.4786 531.503 66.2562C532.611 66.0339 533.646 65.7375 534.459 65.3669C535.345 64.9963 536.084 64.4776 536.823 63.8106C537.71 63.0694 538.449 62.3283 539.188 61.5872C539.853 60.8461 540.518 60.0309 541.109 59.1415C541.7 58.2522 542.291 57.2146 542.882 56.1029C543.473 54.9913 544.064 53.6573 544.729 52.1009L546.503 52.3232L540.37 71.2958Z" fill="#BAA99F"/>
<path d="M600 53.5829C600 56.2509 599.483 58.6966 598.374 61.0681C597.266 63.4397 595.788 65.5148 593.867 67.2194C591.946 68.9981 589.581 70.4062 586.921 71.4438C584.261 72.4813 581.306 73.0001 578.054 73.0001C575.69 73.0001 573.547 72.7778 571.626 72.4072C569.705 72.0367 567.931 71.5179 566.38 70.9991C564.828 70.4803 563.498 70.0356 562.316 69.591C561.133 69.1463 560.173 68.9981 559.36 68.9981C558.547 68.9981 557.882 69.2945 557.365 69.8874C556.848 70.4803 556.478 71.5179 556.256 73.0001H554.409V49.062H556.256C556.7 52.6935 557.586 55.7321 558.843 58.2519C560.099 60.7717 561.724 62.8468 563.572 64.4032C565.419 66.0336 567.488 67.1453 569.852 67.8864C572.217 68.6275 574.508 68.9981 577.02 68.9981C579.163 68.9981 581.084 68.7016 582.783 68.1087C584.483 67.5158 585.961 66.7006 587.143 65.5889C588.325 64.4773 589.286 63.3656 589.951 61.9575C590.616 60.5493 590.911 59.1412 590.911 57.5849C590.911 55.8803 590.616 54.3981 590.025 53.0641C589.434 51.7301 588.473 50.4702 587.143 49.2844C585.813 48.0986 584.039 46.8387 581.971 45.5047C579.828 44.1707 577.241 42.6884 574.212 40.9839C570.074 38.6123 566.675 36.5372 564.089 34.7585C561.429 32.9057 559.36 31.2011 557.882 29.4966C556.404 27.792 555.37 26.0874 554.779 24.3829C554.187 22.6783 553.966 20.6773 553.966 18.528C553.966 16.0823 554.409 13.7108 555.37 11.4874C556.33 9.26407 557.66 7.33716 559.434 5.63259C561.207 3.92803 563.35 2.59402 565.788 1.63056C568.227 0.667112 571.109 0.14833 574.212 0.14833C576.207 0.14833 578.054 0.370665 579.754 0.741224C581.453 1.11178 582.857 1.63056 584.187 2.07523C585.517 2.59402 586.626 3.03869 587.66 3.40924C588.695 3.7798 589.507 4.00214 590.32 4.00214C591.133 4.00214 591.798 3.70569 592.315 3.1128C592.833 2.5199 593.276 1.55645 593.645 0.0742188H595.567V24.2346H593.645C593.276 20.9737 592.537 18.0092 591.429 15.5636C590.32 13.1179 588.842 10.9686 587.143 9.26407C585.443 7.5595 583.448 6.2996 581.306 5.41026C579.089 4.52092 576.798 4.15036 574.36 4.15036C572.66 4.15036 571.109 4.44681 569.631 5.0397C568.153 5.63259 566.823 6.37371 565.788 7.41127C564.754 8.44884 563.793 9.56051 563.202 10.8204C562.537 12.1544 562.242 13.4884 562.242 14.9707C562.242 16.4529 562.463 17.5646 562.981 18.7504C563.498 19.862 564.384 21.0478 565.714 22.3077C567.045 23.4935 568.818 24.8275 571.035 26.2356C573.251 27.6438 576.059 29.2742 579.532 31.127C582.857 32.9057 585.591 34.462 587.734 35.796C589.877 37.1301 591.576 38.3158 592.833 39.2052C595.197 40.9839 597.044 43.059 598.374 45.5788C599.409 47.9504 600 50.6184 600 53.5829Z" fill="#BAA99F"/>
</g>
<defs>
<clipPath id="clip0_131_280">
<rect width="718" height="73" fill="white" transform="translate(-118)"/>
</clipPath>
</defs>
</svg>
